<?xml version="1.0" standalone="no"?>
<!DOCTYPE svg PUBLIC "-//W3C//DTD SVG 20010904//EN"
 "http://www.w3.org/TR/2001/REC-SVG-20010904/DTD/svg10.dtd">
<svg version="1.0" xmlns="http://www.w3.org/2000/svg"
 width="500.000000pt" height="500.000000pt" viewBox="0 0 500.000000 500.000000"
 preserveAspectRatio="xMidYMid meet">

<g transform="translate(0.000000,500.000000) scale(0.100000,-0.100000)"
fill="#000000" stroke="none">
<path d="M2257 4440 c-9 -11 -22 -20 -29 -20 -8 1 -5 7 6 15 11 8 16 15 10 15
-20 0 -92 -23 -139 -45 -111 -51 -146 -65 -159 -65 -7 0 -20 -8 -27 -17 -10
-11 -10 -14 -1 -9 22 13 13 -5 -20 -38 -47 -46 -78 -86 -78 -98 0 -6 -20 -29
-44 -52 -37 -35 -44 -48 -50 -95 -4 -29 -14 -64 -22 -77 -9 -12 -15 -24 -14
-26 1 -2 -4 -16 -10 -33 -30 -78 -65 -418 -56 -545 15 -222 19 -589 7 -603 -6
-8 -10 -30 -9 -48 2 -29 -14 -105 -53 -251 -5 -21 -10 -41 -10 -45 -1 -5 -10
-25 -20 -45 -10 -21 -19 -44 -19 -53 0 -8 -12 -21 -27 -28 -15 -6 -35 -19 -43
-28 -9 -8 -25 -22 -36 -30 -39 -29 -146 -166 -175 -224 -17 -33 -43 -78 -59
-100 -55 -77 -125 -245 -144 -350 -4 -22 -12 -43 -18 -46 -34 -21 -128 -322
-128 -411 0 -35 -13 -80 -46 -161 -26 -62 -64 -164 -86 -227 -21 -63 -55 -155
-74 -203 -48 -122 -64 -209 -62 -330 1 -56 -1 -117 -6 -134 l-8 -33 1121 0
c890 0 1121 3 1121 13 0 8 3 9 8 1 9 -15 82 -16 99 -3 9 8 13 8 13 0 0 -6 7
-11 16 -11 13 0 13 4 -3 30 -9 17 -25 31 -35 31 -10 1 -22 3 -28 4 -5 1 -14 3
-19 4 -5 0 -11 9 -14 20 -6 25 25 22 37 -4 9 -19 10 -19 13 3 5 23 18 29 28
12 3 -5 11 -10 17 -10 6 0 4 8 -5 18 -18 19 -24 57 -8 48 5 -4 12 0 15 6 3 7
3 3 0 -9 -3 -13 -1 -23 4 -23 6 0 9 -12 7 -27 -1 -16 7 -42 23 -65 20 -31 30
-38 53 -36 15 1 25 6 23 10 -3 5 -9 6 -13 4 -4 -3 -8 8 -9 24 -1 26 2 28 21
20 12 -4 21 -13 20 -19 -2 -6 2 -11 8 -11 6 0 17 -7 25 -15 20 -19 35 -19 28
0 -4 8 -9 13 -13 10 -4 -2 -15 9 -25 26 -9 16 -22 27 -27 24 -16 -10 -31 5
-19 20 8 9 6 14 -5 19 -19 7 -20 26 -1 26 12 0 13 7 5 32 -11 41 -11 51 0 44
5 -3 12 -22 16 -43 8 -46 35 -100 70 -142 20 -23 34 -31 58 -30 18 1 24 3 15
6 -22 6 -23 26 -2 44 13 10 17 10 24 0 5 -9 10 -10 14 -2 4 6 2 11 -5 11 -7 0
-9 3 -6 6 12 12 -42 46 -63 39 -19 -6 -21 -2 -20 30 0 3 -7 19 -15 35 -9 17
-13 30 -10 30 4 0 -3 13 -14 29 -21 29 -19 61 3 61 6 0 17 -19 24 -43 8 -23
24 -56 38 -74 13 -17 24 -35 24 -38 0 -4 14 -20 30 -37 35 -34 41 -84 13 -91
-10 -2 10 -4 44 -5 59 -1 86 9 63 23 -5 3 -10 11 -10 17 0 6 11 -1 25 -16 17
-19 33 -26 54 -24 16 1 29 5 29 8 0 3 1 16 2 30 l2 25 8 -25 c7 -21 8 -18 11
20 1 34 3 38 6 15 10 -82 -7 -75 188 -74 96 0 175 5 175 10 0 13 53 36 75 32
29 -6 65 -25 60 -32 -2 -4 7 -8 21 -9 28 -2 28 -2 10 34 -8 15 -13 31 -10 36
9 14 32 -11 39 -43 6 -25 11 -29 41 -29 28 0 34 4 35 23 l0 22 9 -23 10 -23
256 1 256 1 -6 27 c-4 15 -13 50 -21 77 -8 28 -19 69 -25 93 -8 32 -16 42 -31
42 -12 0 -17 4 -14 11 4 6 14 8 22 5 10 -4 13 -1 9 12 -25 85 -41 149 -71 281
-19 85 -40 158 -47 163 -10 6 -10 8 1 8 10 0 12 9 7 37 -3 21 -15 97 -26 168
-11 72 -25 150 -31 175 -13 53 -44 158 -54 182 -6 14 -2 15 34 6 66 -17 84 12
57 87 -7 18 -5 17 13 -3 17 -19 24 -21 41 -12 19 10 25 31 20 75 -4 34 -39 74
-101 114 -103 67 -183 133 -212 174 -22 31 -31 37 -38 26 -7 -11 -9 -10 -10 6
-1 11 -1 26 0 32 2 15 -24 58 -58 97 -14 16 -20 26 -13 22 6 -4 12 -4 12 1 -1
20 -28 84 -43 101 -9 10 -17 28 -17 39 0 11 -7 26 -15 33 -9 7 -13 20 -10 29
8 25 -18 56 -40 48 -9 -4 -15 -13 -12 -21 4 -10 -6 -8 -34 7 -21 11 -39 24
-39 29 0 4 -6 8 -14 8 -8 0 -24 14 -36 31 -25 35 -70 66 -184 128 -156 84
-168 92 -157 105 7 9 7 16 0 23 -6 6 -8 17 -4 23 6 9 10 9 16 -1 5 -9 7 3 5
30 -3 28 -1 39 4 31 5 -8 10 -12 12 -10 12 16 28 81 27 106 -2 26 -2 26 -6 5
-4 -17 -7 -21 -13 -11 -4 7 -3 23 2 36 9 19 5 35 -21 86 -17 35 -31 67 -31 72
0 7 -15 28 -60 83 -6 7 -10 15 -10 19 0 4 -9 15 -21 25 -21 18 -62 136 -53
151 3 4 1 8 -4 8 -5 0 -9 27 -9 59 -1 34 -8 74 -17 92 -9 18 -16 38 -16 44 0
7 -17 59 -39 116 -21 57 -42 127 -46 154 -6 37 -9 45 -15 30 -4 -12 -9 8 -13
55 -6 78 -39 185 -104 333 -36 85 -61 123 -49 77 6 -21 5 -22 -4 -7 -7 10 -9
26 -5 35 3 9 3 13 -1 9 -4 -4 -25 21 -47 55 -22 35 -42 57 -44 51 -8 -22 -19
-14 -21 13 -2 31 -20 56 -33 48 -5 -3 -9 2 -9 10 0 30 -159 128 -190 118 -8
-3 -11 -1 -7 4 16 17 -102 35 -268 39 -161 5 -171 4 -188 -15z m43 -40 c0 -6
-25 -10 -67 -9 -38 1 -84 -1 -103 -4 l-35 -7 35 14 c44 16 170 21 170 6z
m-103 -66 c-3 -3 -12 -4 -19 -1 -8 3 -5 6 6 6 11 1 17 -2 13 -5z m58 -14 c3
-6 -1 -7 -9 -4 -18 7 -21 14 -7 14 6 0 13 -4 16 -10z m90 -55 c20 -16 20 -16
-1 -6 -12 6 -24 8 -27 5 -3 -3 -11 4 -17 16 -10 19 -10 20 7 11 10 -5 27 -17
38 -26z m-49 -17 l29 -33 -30 25 c-16 14 -34 28 -39 32 -6 5 -6 8 0 8 6 0 23
-15 40 -32z m140 -15 l27 -36 -29 17 c-31 18 -64 69 -38 59 7 -2 25 -21 40
-40z m413 16 c1 10 8 8 25 -8 l25 -23 -6 23 c-6 20 -1 17 27 -14 22 -26 36
-35 43 -28 7 7 15 7 24 0 16 -14 17 -33 1 -23 -6 4 0 -8 14 -27 32 -42 63
-104 49 -95 -7 5 -11 -3 -11 -21 l-1 -28 -17 24 c-31 42 -65 72 -79 67 -8 -3
-13 2 -13 12 0 10 -5 23 -12 30 -24 24 -26 11 -5 -27 12 -22 24 -35 28 -30 3
6 13 0 21 -13 15 -23 15 -24 -13 -23 -16 0 -29 4 -29 8 0 8 -6 18 -70 111 -19
27 -29 51 -23 53 5 2 8 16 6 31 -3 23 -2 24 6 7 6 -12 10 -15 10 -6z m-89 -85
c0 5 7 3 15 -4 8 -6 19 -9 25 -5 16 10 100 -74 100 -99 0 -18 -1 -19 -20 -1
-38 34 -31 8 14 -51 47 -63 51 -76 14 -50 -12 9 -20 16 -17 16 4 0 -8 16 -27
35 -45 48 -51 44 -19 -12 l26 -48 -30 35 c-17 19 -31 38 -31 43 0 4 -5 7 -11
7 -5 0 -3 -10 5 -22 27 -38 13 -54 -18 -22 -9 8 -20 13 -25 9 -6 -3 -15 4 -22
16 -7 15 -8 24 -1 28 7 4 8 12 2 21 -8 13 -10 12 -10 -3 0 -10 -4 -15 -10 -12
-5 3 -10 0 -10 -7 -1 -8 -5 -7 -14 5 -10 13 -15 15 -18 5 -3 -7 -5 1 -5 19 l0
31 19 -21 c18 -22 18 -22 3 8 -20 40 -19 53 3 28 9 -11 27 -25 39 -31 28 -15
26 3 -4 42 -12 15 -19 34 -16 42 3 8 -3 25 -13 37 -10 12 -2 6 19 -12 20 -19
37 -31 37 -27z m-100 -87 c0 -5 -7 -4 -15 3 -8 7 -15 20 -15 29 1 13 3 13 15
-3 8 -11 15 -24 15 -29z m-580 -8 c0 -16 -15 -16 -33 1 -17 17 -17 17 8 13 14
-3 25 -9 25 -14z m-52 -3 c7 -4 10 -12 6 -17 -4 -6 -11 -6 -20 2 -10 8 -14 8
-14 0 0 -6 -8 -11 -17 -11 -21 1 -55 24 -47 32 7 8 77 4 92 -6z m567 -46 c15
-29 21 -50 14 -50 -8 0 -8 -4 1 -15 8 -9 8 -15 2 -15 -6 0 -25 17 -42 38 -28
32 -31 34 -25 12 7 -23 6 -24 -9 -9 -13 12 -15 21 -7 42 11 27 23 37 18 15 -2
-7 1 -3 7 10 5 12 11 22 13 22 1 0 14 -22 28 -50z m34 5 c17 -25 26 -45 21
-45 -9 0 -60 73 -60 85 0 13 11 2 39 -40z m-112 -8 c-6 -20 -20 -10 -23 18 -3
28 -2 29 12 10 8 -10 13 -23 11 -28z m-92 -67 c9 -17 13 -35 10 -40 -3 -5 4
-7 15 -5 25 5 48 -31 30 -49 -8 -8 -9 -6 -4 9 4 11 4 17 -1 13 -4 -4 -14 -3
-22 3 -16 14 -18 -3 -3 -32 20 -37 1 -19 -21 21 -30 53 -34 45 -8 -14 11 -26
18 -50 15 -53 -3 -3 -10 7 -16 23 -7 16 -21 46 -32 68 -11 21 -15 36 -10 32 6
-3 13 0 15 6 4 10 8 9 16 -2 13 -19 14 -9 1 24 -13 36 -4 33 15 -4z m-325 -52
c25 -12 86 -49 135 -83 101 -70 147 -115 127 -122 -7 -3 -25 -15 -40 -27 -15
-13 -33 -21 -40 -18 -7 2 -16 -5 -19 -17 -3 -11 -9 -18 -14 -15 -5 3 -9 -2 -9
-12 0 -13 6 -15 36 -10 19 4 43 10 52 13 9 3 -2 -9 -25 -27 -44 -32 -47 -39
-37 -76 4 -15 11 -20 25 -17 13 4 22 -2 29 -19 16 -35 115 -52 209 -37 65 11
70 10 100 -12 17 -12 31 -29 31 -36 0 -7 14 -26 31 -44 17 -18 28 -37 25 -46
-3 -8 -1 -11 4 -8 6 3 11 0 12 -7 0 -7 2 -17 3 -23 2 -5 3 -15 4 -21 0 -6 19
-38 41 -70 37 -55 40 -64 40 -129 0 -93 -21 -134 -81 -156 -23 -9 -47 -26 -52
-37 -16 -34 -163 -101 -256 -116 -44 -7 -86 -18 -94 -24 -7 -6 -45 -15 -84
-20 -65 -7 -78 -6 -137 18 -37 14 -85 41 -108 60 -22 19 -46 37 -52 39 -6 2
-23 13 -38 23 -25 17 -32 17 -29 -4 0 -3 -7 -5 -17 -3 -9 2 -20 4 -23 4 -3 1
-5 16 -3 34 1 17 -9 62 -22 99 -31 88 -57 243 -49 288 4 19 10 93 14 164 9
154 10 156 115 155 39 0 66 -3 59 -5 -7 -3 -10 -11 -7 -19 4 -9 -11 -18 -49
-29 -59 -17 -91 -44 -85 -73 3 -14 17 -20 67 -26 37 -4 68 -4 75 2 6 5 28 12
49 16 20 4 37 12 37 19 0 8 3 7 8 -1 10 -16 54 -13 48 4 -3 7 0 12 7 10 7 -1
13 10 15 25 4 32 -44 101 -73 106 -11 2 -26 8 -32 14 -8 6 -50 8 -105 5 -84
-4 -94 -7 -115 -31 -13 -15 -23 -22 -23 -15 0 25 42 195 52 214 7 11 22 42 35
68 14 29 33 51 48 57 14 5 25 13 25 18 0 16 114 1 160 -20z m287 -40 c7 -16
11 -28 9 -28 -8 0 -36 58 -35 72 0 9 2 8 6 -2 3 -8 12 -27 20 -42z m68 -348
c4 -6 -5 -10 -20 -10 -15 0 -24 4 -20 10 3 6 12 10 20 10 8 0 17 -4 20 -10z
m-508 -16 c-3 -3 -12 -4 -19 -1 -8 3 -5 6 6 6 11 1 17 -2 13 -5z m575 -21 c-6
-2 -9 -9 -6 -14 3 -6 -20 -9 -62 -7 -43 2 -69 8 -72 16 -3 9 16 12 75 11 43 0
72 -3 65 -6z m-589 -51 c-22 -5 -27 6 -12 24 12 15 14 14 20 -3 4 -12 1 -19
-8 -21z m1561 -581 c25 -33 46 -66 46 -75 0 -8 5 -18 10 -21 6 -3 9 -36 9 -73
l-1 -67 -9 52 c-5 28 -18 68 -29 88 -11 19 -20 42 -20 49 0 8 -3 16 -7 18 -9
4 -56 88 -49 88 3 0 25 -27 50 -59z m-57 -3 c2 -18 0 -20 -7 -8 -12 18 -13 30
-2 30 4 0 9 -10 9 -22z m0 -70 c-3 -7 -5 -2 -5 12 0 14 2 19 5 13 2 -7 2 -19
0 -25z m-1217 -245 c7 -20 21 -50 32 -68 19 -33 19 -33 81 -28 34 2 69 7 77
10 8 3 23 5 33 4 10 -1 55 16 100 38 105 51 127 57 127 37 0 -14 12 -20 33
-17 4 0 7 -6 7 -14 0 -8 9 -15 20 -15 17 0 19 -5 14 -25 -6 -24 2 -30 29 -26
15 2 2 -60 -15 -76 -25 -22 -24 -46 2 -38 12 4 20 2 20 -5 0 -23 -41 -90 -55
-90 -8 0 -15 -7 -15 -15 0 -8 -6 -15 -12 -16 -7 0 -4 -4 7 -8 16 -7 8 -15 -53
-55 -40 -26 -70 -52 -66 -57 3 -5 -6 -13 -20 -19 -14 -5 -26 -12 -26 -15 0 -8
50 5 83 22 16 8 34 12 40 10 7 -2 -6 -12 -27 -21 -22 -9 -55 -28 -74 -42 -18
-14 -70 -37 -115 -51 -45 -14 -102 -35 -127 -48 -57 -28 -221 -83 -280 -93
-25 -4 -65 -5 -90 -2 -25 3 -76 1 -115 -4 -127 -16 -120 -18 -119 41 2 61 51
223 68 220 6 -1 10 6 9 17 -1 13 16 26 60 47 119 57 222 124 222 144 0 11 8
21 19 23 14 3 17 0 13 -12 -4 -10 -1 -16 8 -16 24 0 17 -17 -10 -24 -14 -4
-25 -10 -25 -15 0 -5 14 -3 30 6 23 11 29 20 25 34 -4 11 3 46 14 78 18 52 23
111 22 246 0 19 1 18 18 -4 10 -13 24 -39 31 -58z m1137 25 c-2 -13 -4 -5 -4
17 -1 22 1 32 4 23 2 -10 2 -28 0 -40z m-1217 -133 c0 -8 -4 -15 -9 -15 -6 0
-7 -16 -4 -35 5 -34 5 -35 -26 -35 -40 0 -42 26 -5 69 28 34 44 39 44 16z
m-80 -68 c0 -2 -10 -12 -22 -23 l-23 -19 19 23 c18 21 26 27 26 19z m780 -30
c0 -17 -38 -53 -46 -44 -7 6 27 56 39 57 4 0 7 -6 7 -13z m-730 -7 c12 -8 9
-10 -13 -10 -16 0 -26 4 -22 10 8 12 16 12 35 0z m1166 -14 c-2 -33 -21 -49
-37 -30 -10 12 -9 13 3 9 11 -4 18 2 22 19 8 33 14 33 12 2z m65 -13 c-12 -20
-14 -14 -5 12 4 9 9 14 11 11 3 -2 0 -13 -6 -23z m-1371 3 c0 -2 -12 -11 -27
-20 l-28 -17 24 20 c23 21 31 25 31 17z m1816 -73 c-8 -8 -56 25 -56 38 0 6
14 1 31 -11 16 -12 28 -25 25 -27z m-740 18 c-6 -9 -46 -22 -46 -15 0 3 10 9
23 14 29 11 29 11 23 1z m196 -18 c-3 -16 -7 -22 -10 -15 -4 13 4 42 11 42 2
0 2 -12 -1 -27z m-284 -15 c-14 -18 -30 -34 -37 -36 -7 -2 3 12 21 32 41 45
49 47 16 4z m245 7 c-3 -9 -8 -14 -10 -11 -3 3 -2 9 2 15 9 16 15 13 8 -4z
m-303 -59 c0 -2 -7 -7 -16 -10 -8 -3 -12 -2 -9 4 6 10 25 14 25 6z m760 -23
c0 -5 11 -9 24 -9 14 -1 41 -14 61 -30 33 -25 35 -29 20 -40 -14 -10 -12 -12
12 -12 52 1 63 -2 63 -18 0 -10 6 -14 14 -11 20 8 28 -4 15 -20 -9 -10 -8 -17
2 -30 13 -14 12 -15 -6 -5 -11 6 -32 13 -47 17 -16 3 -28 12 -28 21 0 8 -4 13
-9 9 -5 -3 -15 1 -23 8 -7 7 -25 18 -40 24 -16 7 -28 17 -28 23 0 5 -3 9 -7 9
-26 -4 -34 2 -28 22 5 13 3 19 -3 15 -5 -3 -12 3 -15 14 -3 13 0 20 9 20 8 0
14 -3 14 -7z m-1034 -48 c-11 -8 -25 -15 -30 -15 -6 1 0 7 14 15 32 19 40 18
16 0z m1025 -38 c18 3 29 1 29 -6 0 -6 -4 -11 -10 -11 -5 0 -10 -9 -10 -21 0
-15 -5 -19 -15 -15 -12 4 -14 0 -9 -22 l6 -27 -16 29 c-9 16 -14 37 -11 48 8
24 0 23 -25 -4 l-22 -23 4 25 c2 14 9 24 17 22 7 -1 16 8 19 20 l7 23 3 -22
c3 -19 8 -21 33 -16z m-676 -37 c-9 -16 -11 -30 -6 -30 6 0 8 -6 5 -14 -3 -8
-12 -12 -19 -10 -11 5 -11 11 -2 32 12 29 27 52 33 52 3 0 -2 -13 -11 -30z
m751 -5 c9 -8 11 -15 5 -15 -5 0 -13 5 -17 11 -3 6 -15 9 -25 6 -11 -3 -17 -1
-13 4 8 14 34 11 50 -6z m-2262 -92 c-28 -21 -34 -16 -34 30 0 36 4 46 23 54
21 10 22 8 25 -31 3 -29 -1 -44 -14 -53z m2146 56 c0 -20 -15 -26 -24 -10 -8
13 4 42 15 35 5 -3 9 -14 9 -25z m-123 -11 c-3 -7 -5 -2 -5 12 0 14 2 19 5 13
2 -7 2 -19 0 -25z m88 -41 c12 -41 12 -45 -3 -42 -9 2 -20 4 -24 4 -10 1 -10
53 -2 76 8 21 13 15 29 -38z m359 18 c-7 -17 -42 -20 -64 -4 -12 8 -7 9 18 6
17 -2 32 0 32 5 0 4 4 8 10 8 5 0 7 -7 4 -15z m-456 -80 c-1 -29 -1 -29 -5 -3
-3 18 -9 25 -18 22 -12 -5 -12 0 -2 26 11 30 12 31 18 8 4 -13 7 -36 7 -53z
m476 49 c3 -8 2 -12 -4 -9 -6 3 -10 10 -10 16 0 14 7 11 14 -7z m-184 -15 c0
-6 -4 -7 -10 -4 -5 3 -10 11 -10 16 0 6 5 7 10 4 6 -3 10 -11 10 -16z m81 4
c-11 -5 -11 -7 0 -14 11 -7 10 -9 -3 -9 -18 0 -23 11 -11 23 3 4 11 7 17 6 6
0 5 -3 -3 -6z m42 -27 c4 -10 1 -13 -8 -9 -8 3 -12 9 -9 14 7 12 11 11 17 -5z
m136 -24 c-14 -5 10 -32 28 -32 8 0 11 -4 8 -10 -3 -5 -22 -10 -42 -10 -29 0
-34 -3 -28 -17 4 -10 9 -47 12 -82 5 -52 3 -63 -8 -59 -8 3 -13 11 -11 18 2 8
-3 10 -13 6 -10 -3 -18 1 -21 12 -4 9 -13 32 -21 50 -8 18 -12 38 -10 45 3 7
8 4 12 -8 15 -44 29 -65 43 -65 12 0 12 3 2 15 -8 10 -9 15 -1 15 7 0 7 7 -1
25 -6 14 -17 25 -24 25 -7 0 -16 5 -20 11 -5 9 2 10 22 6 16 -3 23 -4 16 -1
-6 3 -10 9 -7 14 7 12 -39 -1 -47 -14 -4 -6 -10 -3 -14 8 -14 36 64 64 94 34
9 -9 12 -8 12 4 0 9 -4 20 -10 23 -5 3 -10 11 -10 16 0 5 11 2 24 -8 13 -10
20 -20 15 -21z m143 -20 c6 -7 8 -16 4 -19 -4 -4 -23 10 -44 31 l-37 39 33
-19 c19 -11 38 -25 44 -32z m-982 -52 c3 -3 6 -21 8 -40 3 -42 -14 -22 -22 26
-3 16 -11 33 -18 39 -7 5 -14 24 -15 40 -3 28 -1 26 20 -15 12 -25 24 -47 27
-50z m-1888 15 c2 -25 0 -45 -4 -45 -5 0 -8 6 -8 14 0 7 -3 28 -6 45 -4 18 -2
31 4 31 5 0 12 -20 14 -45z m1288 22 c0 -13 -66 -44 -83 -39 -4 1 -15 -4 -23
-13 -9 -8 -23 -15 -32 -15 -10 0 -42 -9 -72 -20 -30 -11 -62 -20 -70 -20 -9 0
-34 -8 -56 -19 -21 -10 -70 -28 -109 -39 -38 -11 -110 -32 -158 -47 -48 -14
-92 -23 -97 -20 -6 4 -10 2 -10 -3 0 -4 -25 -16 -55 -26 -40 -12 -55 -22 -55
-35 0 -10 -7 -24 -15 -31 -17 -15 -19 -7 -5 21 11 20 4 24 -23 13 -9 -3 -12
-14 -9 -31 3 -18 1 -24 -7 -19 -6 4 -11 14 -11 22 0 8 -4 14 -9 14 -4 0 -80
-24 -167 -54 -87 -29 -172 -56 -189 -60 -16 -4 -37 -14 -47 -22 -11 -10 -18
-12 -23 -5 -3 6 1 11 9 11 9 0 15 6 13 13 -1 7 8 12 21 11 15 0 21 4 18 13 -3
8 2 17 12 20 9 4 19 10 22 13 12 17 102 55 190 81 52 15 160 48 238 74 79 25
150 44 157 41 8 -3 15 -1 17 4 4 12 158 52 175 46 8 -3 12 -2 8 3 -7 12 51 25
67 15 7 -4 10 -3 5 1 -4 5 10 14 30 22 43 14 69 17 76 6 2 -5 2 -3 1 4 -2 6 4
14 12 17 9 3 12 1 9 -4 -9 -14 2 -12 30 6 13 9 28 13 33 10 6 -3 15 0 21 8 12
15 82 31 118 28 12 -2 24 2 28 8 9 14 15 13 15 -3z m897 -9 c-3 -8 -6 -5 -6 6
-1 11 2 17 5 13 3 -3 4 -12 1 -19z m363 -15 c0 10 5 17 11 17 5 0 8 -4 5 -8
-2 -4 -1 -14 5 -22 7 -12 9 -10 9 8 0 13 4 20 10 17 13 -8 13 -62 1 -69 -5 -4
-12 0 -14 6 -3 7 -6 4 -6 -7 -1 -11 -4 -31 -6 -45 -3 -14 -3 -19 1 -12 3 6 10
10 15 7 5 -4 6 2 2 12 -6 16 -4 16 18 -2 33 -27 89 -88 89 -97 0 -4 6 -5 13
-2 13 5 54 -31 50 -45 0 -3 3 -5 8 -3 6 1 17 -11 26 -27 10 -16 32 -37 50 -46
18 -10 33 -21 33 -26 0 -4 20 -28 45 -54 24 -26 42 -52 38 -58 -3 -5 2 -16 12
-23 10 -8 15 -20 11 -29 -3 -9 -2 -13 4 -10 6 3 10 0 10 -9 0 -8 3 -21 6 -29
4 -12 0 -14 -15 -10 -18 5 -20 1 -19 -41 0 -26 -2 -50 -6 -53 -3 -4 -6 3 -6
15 0 11 -4 23 -8 26 -5 3 -6 -8 -4 -25 4 -29 -11 -40 -22 -16 -3 6 -4 0 -2
-15 2 -21 -1 -28 -13 -28 -17 0 -20 -29 -7 -62 5 -9 -1 -32 -13 -55 l-21 -38
0 45 c0 25 -2 102 -6 171 -4 84 -3 133 5 146 8 17 7 22 -4 27 -17 6 -19 -8
-16 -97 3 -62 -12 -95 -34 -77 -7 6 -12 22 -10 35 1 14 -1 25 -5 25 -4 0 -3
17 2 39 9 36 7 42 -26 86 -20 25 -36 55 -36 65 0 23 -17 35 -23 18 -2 -7 -2
-1 0 14 3 17 -2 33 -15 46 -19 19 -26 52 -10 52 5 0 -2 14 -14 31 -23 31 -75
65 -85 55 -3 -3 2 -8 11 -12 10 -4 16 -17 16 -35 0 -29 -13 -38 -25 -19 -4 6
-9 8 -13 6 -4 -2 -5 19 -3 46 2 34 0 48 -7 44 -13 -8 -32 55 -34 109 -1 19 -5
35 -10 35 -5 0 -6 -23 -2 -50 6 -44 4 -50 -9 -44 -12 4 -16 19 -16 60 1 30 5
51 10 48 5 -3 9 0 9 7 0 7 9 2 20 -11 16 -18 20 -20 20 -7z m-303 -15 c-3 -7
-5 -2 -5 12 0 14 2 19 5 13 2 -7 2 -19 0 -25z m-700 -10 c-3 -8 -6 -5 -6 6 -1
11 2 17 5 13 3 -3 4 -12 1 -19z m1213 -13 c0 -3 -9 -5 -20 -5 -11 0 -20 7 -20
15 0 13 4 14 20 5 11 -6 20 -13 20 -15z m61 -7 c8 -31 -2 -36 -21 -13 -7 8 -9
15 -5 15 4 0 1 7 -6 16 -12 14 -11 16 6 13 10 -2 22 -16 26 -31z m-1557 11
c11 17 35 13 59 -10 12 -12 16 -18 8 -14 -9 5 -19 1 -28 -10 -7 -11 -13 -14
-13 -8 0 7 5 15 10 18 14 8 3 25 -16 25 -8 0 -13 -4 -10 -9 3 -5 -4 -11 -15
-14 -14 -4 -20 -11 -16 -21 3 -8 2 -18 -4 -21 -5 -4 -6 -11 -3 -17 5 -7 12 -4
22 8 13 17 14 17 9 1 -5 -13 0 -20 18 -27 29 -11 33 -22 8 -16 -36 7 -70 25
-77 41 -3 9 -2 13 4 10 6 -3 10 1 10 9 0 9 -6 16 -12 16 -9 0 -8 3 2 10 8 5
16 14 16 20 3 23 5 24 13 11 6 -9 11 -10 15 -2z m1150 -5 c3 -8 2 -12 -4 -9
-6 3 -10 10 -10 16 0 14 7 11 14 -7z m56 5 c0 -4 -8 -9 -18 -11 -10 -3 -19 0
-19 6 0 7 9 12 19 12 10 0 18 -3 18 -7z m-1286 -45 c9 -8 16 -22 16 -29 0 -40
-64 -59 -95 -29 -21 22 -15 46 15 61 33 17 45 16 64 -3z m906 -5 c0 -6 -4 -7
-10 -4 -5 3 -10 11 -10 16 0 6 5 7 10 4 6 -3 10 -11 10 -16z m-609 -51 l-10
-33 1 40 c1 44 11 70 16 43 2 -9 -1 -31 -7 -50z m956 35 c7 -15 11 -29 8 -31
-3 -3 -5 1 -6 9 -1 8 -5 3 -9 -11 l-8 -25 -1 27 c-1 15 -6 30 -11 33 -11 7 -4
25 8 25 4 0 13 -12 19 -27z m-1361 -22 c6 -16 10 -39 9 -52 -1 -13 -3 -32 -4
-41 0 -10 -13 -20 -28 -24 -16 -4 -32 -12 -36 -18 -6 -8 -10 -8 -13 1 -3 7
-12 9 -20 6 -10 -3 -12 0 -8 10 3 8 1 18 -5 22 -28 17 4 85 52 112 33 18 42
16 53 -16z m277 11 c-3 -7 -9 -10 -12 -5 -3 4 -10 11 -15 15 -4 4 1 6 12 5 12
-1 18 -6 15 -15z m-393 -27 c-7 -9 -15 -13 -18 -10 -3 2 1 11 8 20 7 9 15 13
18 10 3 -2 -1 -11 -8 -20z m370 21 c0 -11 -19 -15 -25 -6 -3 5 1 10 9 10 9 0
16 -2 16 -4z m1480 -36 c0 -13 -1 -13 -10 0 -5 8 -10 22 -10 30 0 13 1 13 10
0 5 -8 10 -22 10 -30z m-693 3 c14 -32 35 -144 29 -151 -3 -2 -10 23 -17 57
-6 35 -16 58 -21 55 -6 -4 -8 2 -4 14 4 11 2 23 -4 27 -12 7 -14 25 -2 25 4 0
12 -12 19 -27z m655 -47 c5 -25 4 -26 -13 -10 -10 9 -16 21 -13 25 3 5 0 9 -5
9 -6 0 -11 9 -11 20 0 19 0 20 19 1 10 -10 20 -30 23 -45z m-370 37 c-5 -10
-12 -25 -15 -33 -3 -8 -6 0 -6 18 -1 22 4 32 14 32 12 0 13 -5 7 -17z m-1532
-22 c11 -22 11 -23 -9 -18 -12 3 -21 0 -21 -6 0 -7 -6 -3 -12 7 -9 15 -7 22 7
33 10 7 19 12 20 10 1 -1 8 -13 15 -26z m587 -3 c-3 -7 -5 -2 -5 12 0 14 2 19
5 13 2 -7 2 -19 0 -25z m-307 -13 c0 -14 -24 -27 -34 -18 -3 4 -6 13 -6 22 0
14 2 14 10 1 8 -13 10 -12 10 3 0 10 5 15 10 12 6 -3 10 -12 10 -20z m-340
-15 c11 -12 20 -30 20 -39 0 -9 3 -27 7 -40 6 -23 5 -24 -56 -19 -65 5 -85 18
-77 51 2 9 0 17 -5 17 -5 0 -9 5 -9 10 0 6 7 10 15 10 8 0 12 6 9 14 -4 10 3
16 23 18 44 6 51 4 73 -22z m140 -25 c0 -25 -33 -55 -61 -55 -28 0 -41 24 -28
53 23 51 89 53 89 2z m-278 23 c-9 -9 -8 -16 4 -29 33 -36 -12 -81 -65 -64
-46 14 -36 71 15 81 19 3 34 10 34 15 0 5 5 9 12 9 9 0 9 -3 0 -12z m628 2 c0
-5 6 -10 14 -10 11 0 15 -20 18 -85 2 -48 -1 -80 -6 -75 -5 4 -8 41 -8 80 1
62 -1 70 -12 55 -7 -10 -18 -15 -25 -11 -6 4 -19 2 -28 -6 -15 -11 -16 -11
-10 5 4 11 1 17 -9 17 -11 0 -13 -6 -9 -22 6 -16 4 -20 -8 -15 -34 13 -5 -21
33 -39 47 -23 52 -36 10 -27 -35 7 -40 -4 -7 -17 20 -8 20 -9 2 -9 -11 -1 -36
7 -55 17 -19 11 -41 17 -48 15 -7 -3 -10 1 -7 9 3 7 1 19 -4 27 -8 12 -12 13
-26 1 -8 -7 -29 -13 -46 -12 -16 0 -27 -4 -23 -9 3 -5 10 -7 16 -3 6 4 8 -3 6
-17 -1 -13 -13 -28 -25 -34 -13 -5 -23 -13 -23 -17 0 -5 -11 -8 -25 -8 -14 0
-28 -7 -31 -15 -10 -25 -23 -17 -20 11 3 25 36 57 36 35 0 -16 35 -1 49 21 12
19 11 20 -6 13 -10 -4 -37 -12 -60 -18 -33 -8 -43 -15 -43 -31 -1 -28 -41 -56
-69 -49 -16 4 -21 11 -18 24 3 12 0 19 -9 19 -12 0 -14 -13 -10 -71 l5 -70
-28 35 c-16 19 -31 33 -35 29 -3 -3 -6 -2 -6 4 0 6 7 13 15 17 8 3 15 12 15
20 0 10 -6 13 -15 10 -8 -4 -12 -10 -9 -15 3 -6 -5 -7 -19 -4 -43 11 -40 -13
5 -41 24 -15 45 -28 47 -30 6 -6 -43 -42 -51 -38 -4 3 -3 16 2 30 9 22 7 25
-20 31 -27 5 -34 13 -32 34 1 7 -54 -3 -113 -21 -37 -12 -38 -13 -17 -21 12
-5 32 -5 45 -1 41 15 52 9 49 -25 -2 -17 2 -34 7 -38 13 -8 14 -74 2 -94 -5
-7 -14 -11 -20 -7 -12 8 -32 76 -26 87 3 4 -4 5 -16 2 -14 -4 -17 -8 -9 -13 7
-4 11 -13 8 -20 -3 -9 -8 -8 -20 4 -9 9 -22 16 -28 16 -6 0 -28 9 -49 19 -25
13 -42 16 -52 10 -23 -14 -35 -10 -13 5 15 12 17 17 7 27 -8 7 -13 8 -13 3 0
-6 -10 -10 -22 -10 -18 1 -22 -5 -24 -30 -2 -32 -30 -74 -51 -74 -6 0 -19 -7
-27 -16 -9 -8 -16 -12 -16 -7 0 13 -42 14 -57 1 -10 -8 -19 -4 -38 16 -25 27
-25 27 -24 4 1 -26 16 -79 18 -62 1 7 7 14 15 17 10 4 14 -5 14 -36 1 -42 1
-42 -14 -17 l-15 25 5 -24 c4 -22 1 -20 -30 12 -18 21 -39 37 -44 37 -6 0 4
-13 22 -29 32 -29 33 -30 13 -45 -25 -18 -35 -12 -35 24 0 22 -6 30 -30 39
-16 5 -30 17 -30 26 0 16 -23 14 -78 -6 -30 -11 -35 -11 -27 1 3 6 2 10 -4 10
-18 0 -21 -17 -6 -30 10 -8 29 -10 55 -6 40 6 40 6 40 -27 0 -18 4 -37 9 -43
16 -18 30 -75 23 -94 -7 -19 -9 -19 -30 -4 -15 10 -22 25 -22 48 0 31 -1 32
-35 28 -39 -5 -97 24 -75 38 8 5 3 14 -16 29 -23 18 -30 20 -39 9 -10 -13 -50
-38 -60 -38 -3 0 -5 5 -5 11 0 5 4 8 9 4 5 -3 12 -1 16 5 3 5 1 10 -6 10 -7 0
-1 9 12 20 13 11 29 24 36 30 7 5 16 10 21 10 6 0 17 11 26 24 8 13 30 28 48
31 18 4 48 16 66 25 18 10 41 16 52 13 11 -3 27 2 36 12 9 9 25 14 36 12 10
-3 16 -2 13 3 -3 4 7 11 21 14 20 5 25 12 21 26 -3 11 -1 20 4 20 5 0 9 -7 9
-15 0 -18 49 -17 68 2 7 7 24 13 36 13 13 0 30 7 37 16 12 15 9 16 -28 12 -22
-3 -54 1 -71 8 -25 10 -31 18 -30 43 1 17 5 31 10 31 4 0 7 5 5 12 -1 7 12 15
28 18 24 5 35 1 53 -18 12 -14 22 -37 22 -52 0 -19 6 -29 20 -33 24 -6 37 8
15 17 -36 13 7 80 48 74 28 -4 33 -58 6 -58 -10 0 -21 -4 -24 -10 -3 -5 1 -10
10 -10 9 0 13 -4 10 -10 -3 -5 -4 -10 0 -10 9 0 49 24 56 34 4 4 40 10 80 13
41 2 76 8 79 13 10 16 58 30 62 18 2 -6 19 -2 43 11 22 11 51 21 65 21 14 0
34 7 44 15 24 18 50 20 40 3 -4 -7 1 -6 12 3 22 18 90 39 128 39 15 0 25 4 22
9 -7 11 63 30 99 26 20 -3 36 3 48 16 10 10 25 19 35 19 13 0 14 -2 4 -9 -11
-7 -11 -9 2 -14 10 -4 21 1 28 13 14 21 28 26 28 10z m1347 -22 c-3 -8 -6 -5
-6 6 -1 11 2 17 5 13 3 -3 4 -12 1 -19z m219 -16 c-6 -5 19 -53 47 -91 9 -13
17 -31 16 -40 0 -13 -1 -14 -6 -1 -3 8 -14 24 -24 35 -20 22 -53 95 -43 95 4
0 0 8 -7 18 -13 15 -12 16 4 3 9 -8 15 -16 13 -19z m194 8 c0 -5 -2 -10 -4
-10 -3 0 -8 5 -11 10 -3 6 -1 10 4 10 6 0 11 -4 11 -10z m-2493 -41 c15 -55 0
-99 -32 -99 -13 0 -25 -5 -27 -12 -6 -17 -48 22 -48 45 0 28 29 71 59 90 36
22 35 22 48 -24z m2574 20 c18 -34 -4 -39 -34 -8 l-28 29 25 0 c15 0 30 -8 37
-21z m-1048 -56 c15 -62 12 -113 -5 -113 -6 0 -7 8 -4 17 4 9 1 20 -6 25 -11
6 -11 8 0 8 9 0 10 5 4 18 -9 17 -15 119 -7 111 2 -3 11 -32 18 -66z m562 47
c3 -5 1 -10 -4 -10 -6 0 -11 5 -11 10 0 6 2 10 4 10 3 0 8 -4 11 -10z m423 -6
c5 3 21 -12 36 -34 27 -42 43 -53 31 -22 -4 11 -3 14 4 7 18 -19 22 -60 7 -80
-14 -20 -14 -20 -43 1 -40 30 -73 82 -73 117 0 25 2 27 15 17 8 -6 18 -9 23
-6z m-1794 -23 c4 -5 -3 -7 -14 -4 -23 6 -26 13 -6 13 8 0 17 -4 20 -9z m755
-44 c1 -5 -3 -5 -9 -2 -6 3 -9 -9 -8 -32 2 -45 -9 -113 -18 -122 -4 -3 -3 17
1 44 4 28 7 59 6 70 -1 11 2 36 5 55 5 30 8 32 14 15 5 -11 9 -24 9 -28z
m-1659 13 c0 -24 -26 -38 -42 -22 -16 16 -2 42 22 42 13 0 20 -7 20 -20z
m2820 10 c0 -5 -4 -10 -10 -10 -5 0 -10 5 -10 10 0 6 5 10 10 10 6 0 10 -4 10
-10z m-591 -46 c-6 -17 -6 -23 1 -19 6 3 10 -5 10 -19 0 -13 3 -32 7 -42 5
-14 3 -16 -11 -11 -10 4 -15 3 -11 -3 4 -6 14 -9 23 -8 14 2 17 -6 17 -42 0
-25 4 -52 8 -60 5 -8 1 -6 -7 4 -9 11 -16 26 -16 33 0 7 -5 13 -11 13 -6 0 -8
9 -4 23 5 19 4 20 -5 5 -13 -21 -40 -24 -40 -5 0 7 6 19 13 26 10 11 8 11 -11
2 l-22 -12 20 33 c11 18 20 40 20 48 -1 11 -4 9 -12 -5 -6 -11 -16 -23 -22
-27 -17 -11 -29 8 -18 29 6 10 8 32 6 48 -3 28 -3 28 5 5 5 -14 9 -19 10 -11
1 7 7 11 16 7 10 -4 15 1 15 16 0 17 3 18 14 8 11 -8 12 -18 5 -36z m46 36 c3
-5 1 -10 -4 -10 -6 0 -11 5 -11 10 0 6 2 10 4 10 3 0 8 -4 11 -10z m-2022 -15
c1 -5 -8 -11 -20 -13 -15 -2 -23 2 -23 11 0 16 39 18 43 2z m52 6 c3 -5 2 -12
-3 -15 -5 -3 -9 1 -9 9 0 17 3 19 12 6z m1739 -24 c4 -19 3 -26 -4 -22 -5 3
-10 18 -10 32 0 32 5 28 14 -10z m816 8 c0 -8 -5 -17 -12 -21 -7 -5 -9 -2 -5
8 3 9 0 21 -6 27 -9 9 -8 11 6 6 9 -4 17 -13 17 -20z m-3030 -5 c0 -5 -4 -10
-10 -10 -5 0 -10 5 -10 10 0 6 5 10 10 10 6 0 10 -4 10 -10z m2470 -5 c0 -8
-4 -15 -10 -15 -5 0 -7 7 -4 15 4 8 8 15 10 15 2 0 4 -7 4 -15z m-1370 1 c0
-11 -19 -15 -25 -6 -3 5 1 10 9 10 9 0 16 -2 16 -4z m737 -28 c-3 -7 -5 -2 -5
12 0 14 2 19 5 13 2 -7 2 -19 0 -25z m337 23 c3 -5 -1 -11 -9 -14 -9 -4 -12
-1 -8 9 6 16 10 17 17 5z m-2184 -16 c36 -43 -32 -93 -71 -54 -17 17 -18 21
-4 42 17 26 58 33 75 12z m1021 5 c11 -6 19 -21 19 -35 0 -14 5 -25 11 -25 6
0 8 9 4 20 -9 29 4 25 15 -5 5 -14 7 -32 3 -41 -5 -13 -11 -10 -34 16 -16 17
-29 35 -29 40 0 4 -7 10 -15 14 -17 6 -20 26 -4 26 6 0 19 -5 30 -10z m1788
-55 c17 -33 31 -66 31 -74 0 -8 6 -22 14 -30 7 -9 16 -35 19 -59 5 -44 -6 -50
-17 -8 -3 13 -22 58 -41 99 -31 66 -57 150 -42 137 3 -3 19 -32 36 -65z
m-1896 40 c-3 -9 -8 -14 -10 -11 -3 3 -2 9 2 15 9 16 15 13 8 -4z m28 -8 c-10
-9 -11 -8 -5 6 3 10 9 15 12 12 3 -3 0 -11 -7 -18z m-1036 -42 c9 -66 4 -81
-31 -97 -22 -10 -28 -10 -32 0 -2 7 -7 10 -12 7 -17 -11 -21 53 -6 84 15 28
51 61 68 61 3 0 10 -25 13 -55z m1220 44 c11 -17 2 -18 -25 -4 -24 14 -24 14
-3 15 12 0 25 -5 28 -11z m1370 -10 c-10 -15 -25 -10 -19 6 4 8 10 12 15 9 5
-3 7 -10 4 -15z m-1615 -5 c0 -3 -5 -14 -10 -25 -8 -15 -7 -19 3 -19 8 0 17
-13 20 -29 4 -19 12 -28 23 -27 9 0 19 -5 21 -12 4 -9 -2 -10 -19 -4 -26 10
-58 5 -58 -8 0 -5 7 -7 15 -4 8 4 15 2 15 -4 0 -5 9 -12 20 -15 20 -5 29 -37
10 -37 -5 0 -10 5 -10 11 0 5 -4 8 -9 5 -5 -4 -12 0 -14 6 -4 8 -6 7 -6 -4 -1
-9 -7 -19 -13 -22 -7 -3 -4 -4 7 -3 27 3 32 -41 11 -94 -9 -22 -16 -63 -16
-93 0 -58 21 -99 87 -167 23 -24 30 -38 22 -41 -9 -3 -7 -10 7 -24 22 -21 64
-30 64 -13 0 5 -4 8 -9 5 -4 -3 -16 3 -25 13 -17 19 -16 19 25 9 38 -10 43 -9
61 13 18 23 19 23 8 2 -8 -18 -8 -23 3 -23 19 0 29 -38 16 -61 -10 -20 -12
-35 -2 -26 11 12 31 -13 26 -34 -4 -13 -1 -19 8 -17 17 4 24 -39 9 -57 -10
-12 -14 -11 -30 2 -11 9 -17 20 -14 25 3 4 0 8 -7 8 -7 0 -10 11 -7 29 3 18 0
28 -6 24 -5 -4 -7 0 -4 8 5 12 -4 16 -35 18 -22 1 -70 16 -106 34 -36 17 -72
30 -80 29 -9 -2 -12 2 -8 12 4 10 -4 23 -22 37 -16 12 -31 29 -34 38 -6 25 58
28 72 4 14 -24 14 -13 0 26 -7 19 -22 36 -37 42 -24 9 -24 10 -7 29 13 14 15
23 7 33 -6 7 -12 35 -14 62 -3 49 -4 49 -16 22 -8 -20 -9 -34 -2 -48 8 -15 7
-19 -5 -19 -8 0 -15 -7 -15 -15 0 -8 -4 -15 -10 -15 -10 0 -14 42 -10 107 1
24 -6 39 -26 58 -15 14 -25 26 -23 28 2 2 16 8 31 14 23 11 26 16 21 50 -4 34
-2 40 21 53 18 9 23 17 16 24 -7 7 -15 4 -25 -10 -15 -18 -15 -18 -13 6 2 19
9 25 31 27 23 1 27 -2 27 -23 0 -14 -5 -34 -10 -45 -7 -12 -7 -19 -1 -19 15 0
31 35 31 67 -1 32 -29 76 -37 56 -6 -18 -30 -16 -30 2 0 8 3 12 7 10 4 -2 20
0 36 5 37 11 44 11 44 4z m131 -39 c5 4 9 2 9 -4 0 -14 -23 -19 -36 -7 -8 8
-8 15 0 29 10 17 11 17 14 -3 2 -11 8 -18 13 -15z m-1261 15 c0 -5 -5 -10 -11
-10 -5 0 -7 5 -4 10 3 6 8 10 11 10 2 0 4 -4 4 -10z m2510 0 c0 -5 -2 -10 -4
-10 -3 0 -8 5 -11 10 -3 6 -1 10 4 10 6 0 11 -4 11 -10z m290 -72 c0 -14 6
-29 13 -31 9 -4 9 -7 -1 -15 -7 -5 -10 -16 -6 -25 3 -9 2 -17 -4 -17 -5 0 -12
24 -16 53 -4 28 -9 68 -11 87 l-5 35 15 -30 c8 -16 14 -42 15 -57z m-1902 43
c-10 -17 -10 -25 0 -41 7 -11 8 -20 3 -20 -5 0 -14 15 -20 32 -10 28 -9 35 5
45 23 17 28 10 12 -16z m119 -13 c-3 -7 -5 -2 -5 12 0 14 2 19 5 13 2 -7 2
-19 0 -25z m797 16 c3 -8 2 -12 -4 -9 -6 3 -10 10 -10 16 0 14 7 11 14 -7z
m-829 -4 c13 -20 -6 -96 -27 -109 -23 -14 -23 -18 6 52 9 20 12 37 7 37 -12 0
-41 -74 -41 -106 0 -15 -4 -23 -10 -19 -15 9 -4 67 20 115 20 40 33 49 45 30z
m190 0 c3 -5 -1 -10 -9 -10 -9 0 -16 5 -16 10 0 6 4 10 9 10 6 0 13 -4 16 -10z
m-957 -23 c2 -11 -3 -17 -17 -17 -25 0 -38 19 -20 31 19 12 33 6 37 -14z
m1168 -2 c1 -9 -4 -11 -14 -7 -10 4 -12 7 -4 10 7 2 9 9 5 15 -3 7 -2 8 2 4 5
-4 10 -14 11 -22z m1450 -12 c-4 -4 -11 -1 -16 7 -16 25 -11 35 7 17 9 -9 13
-20 9 -24z m-2836 17 c0 -5 -5 -10 -11 -10 -5 0 -7 5 -4 10 3 6 8 10 11 10 2
0 4 -4 4 -10z m1284 -5 c-4 -8 -10 -12 -15 -9 -11 6 -2 24 11 24 5 0 7 -7 4
-15z m-516 -40 c14 -11 34 -25 45 -31 19 -11 19 -12 -11 -19 -28 -6 -30 -9
-19 -26 6 -10 21 -20 32 -20 16 -1 15 -3 -4 -6 -16 -3 -20 -7 -12 -13 14 -8
61 10 61 23 0 5 -4 5 -10 2 -6 -4 -10 8 -10 29 0 21 -5 36 -12 36 -9 0 -9 3 0
12 10 10 15 10 23 -2 8 -11 12 -12 16 -2 10 26 23 -1 23 -50 0 -58 -19 -88
-57 -88 -12 0 -23 -5 -23 -11 0 -5 4 -7 10 -4 6 4 7 -1 3 -11 -4 -12 -3 -15 5
-10 8 5 10 1 5 -10 -4 -12 -3 -15 5 -10 7 4 12 1 12 -8 0 -9 -4 -16 -10 -16
-5 0 -10 4 -10 9 0 4 -11 20 -25 35 -14 15 -25 33 -25 40 0 7 -9 21 -19 30
-21 19 -48 137 -35 157 6 10 9 10 12 -1 3 -8 16 -24 30 -35z m-718 12 c0 -13
6 -29 13 -36 10 -11 9 -13 -3 -9 -8 3 -23 1 -33 -4 -20 -10 -48 5 -46 26 0 7
2 6 6 -1 7 -19 31 -16 43 6 10 21 -3 40 -15 21 -3 -5 -11 -10 -17 -10 -7 0 -6
6 2 15 20 24 50 19 50 -8z m2565 12 c4 -6 4 -13 0 -17 -3 -3 -10 0 -15 8 -6 8
-10 10 -10 4 0 -6 10 -19 23 -27 16 -12 18 -16 7 -16 -21 -1 -40 19 -40 41 0
20 25 25 35 7z m-1598 -36 c-3 -10 -5 -4 -5 12 0 17 2 24 5 18 2 -7 2 -21 0
-30z m298 27 c3 -6 -1 -7 -9 -4 -18 7 -21 14 -7 14 6 0 13 -4 16 -10z m55 0
c0 -5 -2 -10 -4 -10 -3 0 -8 5 -11 10 -3 6 -1 10 4 10 6 0 11 -4 11 -10z
m1200 -25 c0 -5 -5 -3 -10 5 -5 8 -10 20 -10 25 0 6 5 3 10 -5 5 -8 10 -19 10
-25z m-2600 -20 c0 -33 -2 -35 -32 -34 -32 2 -32 2 -4 6 25 4 28 8 24 34 -3
16 -1 29 4 29 4 0 8 -16 8 -35z m2686 20 c10 -26 -1 -35 -13 -10 -6 14 -7 25
-2 25 5 0 12 -7 15 -15z m-1336 -10 c-13 -16 -70 -18 -70 -3 0 8 15 13 40 13
27 1 36 -2 30 -10z m659 -45 c0 -10 -3 -8 -9 5 -12 27 -12 43 0 25 5 -8 9 -22
9 -30z m795 -9 c-7 -8 -30 25 -26 37 3 9 8 6 16 -10 7 -12 11 -25 10 -27z
m-214 30 c0 -6 -4 -13 -10 -16 -5 -3 -10 1 -10 9 0 9 5 16 10 16 6 0 10 -4 10
-9z m-1272 -25 c23 -1 41 -5 40 -11 -4 -13 -40 -11 -96 4 -23 7 -40 16 -37 21
4 6 15 6 28 -2 12 -6 41 -12 65 -12z m1752 4 c0 -11 -2 -20 -4 -20 -2 0 -6 9
-9 20 -3 11 -1 20 4 20 5 0 9 -9 9 -20z m-2420 -23 c41 -24 54 -38 52 -52 -2
-15 0 -16 6 -7 7 10 16 6 38 -18 16 -17 43 -37 59 -45 51 -25 67 -90 33 -132
-16 -20 -41 -16 -78 12 -19 14 -31 25 -27 25 4 0 -2 15 -13 34 -13 25 -16 36
-7 40 8 3 7 5 -3 6 -20 1 -53 47 -44 62 4 6 3 8 -3 5 -6 -4 -18 4 -27 18 -9
14 -12 25 -7 25 6 0 8 7 4 16 -4 10 -8 12 -13 5 -4 -7 -15 -2 -30 14 -34 36
-6 32 60 -8z m210 16 c0 -8 -5 -13 -12 -11 -18 6 -21 25 -3 25 8 0 15 -7 15
-14z m2000 2 c0 -8 -7 -15 -15 -15 -13 0 -14 3 -3 15 16 18 18 18 18 0z
m-1376 -10 c3 -8 1 -15 -4 -15 -6 0 -10 7 -10 15 0 8 2 15 4 15 2 0 6 -7 10
-15z m-490 -14 c3 -5 -1 -11 -9 -15 -15 -6 -29 7 -18 18 9 9 21 8 27 -3z
m-1278 -88 c-3 -8 -10 -11 -16 -8 -14 9 -13 52 3 78 11 21 12 20 15 -17 2 -21
1 -45 -2 -53z m3148 70 c11 5 16 1 16 -12 0 -11 -5 -21 -12 -23 -7 -3 -9 -12
-5 -22 4 -9 11 -14 17 -11 5 3 10 3 11 -2 4 -53 12 -89 20 -99 6 -7 15 -46 21
-86 5 -40 14 -75 19 -76 5 -2 6 -8 3 -13 -3 -6 -14 -1 -23 10 -10 11 -21 18
-25 14 -4 -4 -5 15 -3 42 5 49 -12 101 -37 117 -8 5 -8 13 2 28 7 11 9 20 5
20 -12 0 -37 62 -35 88 1 12 -3 22 -9 22 -5 0 -7 5 -3 11 5 8 9 7 14 -1 4 -7
15 -10 24 -7z m222 -10 c5 -17 3 -28 -4 -31 -7 -2 -12 -13 -12 -25 0 -18 -2
-19 -10 -7 -16 25 -12 63 5 56 13 -4 14 -2 5 14 -7 13 -7 20 -1 20 6 0 14 -12
17 -27z m-1805 1 c11 -14 10 -15 -11 -12 -13 1 -25 9 -28 16 -5 17 23 15 39
-4z m209 6 c0 -6 12 -22 26 -37 14 -14 24 -27 22 -29 -8 -7 -48 28 -48 42 0 8
-4 14 -8 14 -12 0 -43 -70 -37 -81 4 -5 1 -17 -4 -26 -6 -11 -11 -13 -11 -5 0
7 -5 10 -10 7 -14 -9 -51 4 -44 16 3 5 10 7 15 3 5 -3 8 0 7 8 -2 7 7 14 19
16 15 2 20 8 16 19 -5 12 -3 14 7 8 10 -6 12 -4 7 10 -4 9 -2 24 4 31 13 16
39 19 39 4z m1314 -6 c10 -25 -1 -29 -14 -5 -6 12 -7 21 -1 21 5 0 12 -7 15
-16z m-2466 -14 c-7 -11 -16 -20 -20 -20 -5 0 -3 9 4 20 7 11 16 20 20 20 5 0
3 -9 -4 -20z m90 9 c-12 -6 -18 -23 -19 -47 -1 -37 -1 -37 -8 -7 -9 36 3 65
27 65 16 -1 16 -1 0 -11z m67 2 c3 -5 1 -12 -5 -16 -6 -4 -7 -12 -3 -18 3 -7
-3 -3 -15 7 -12 11 -22 23 -22 28 0 11 37 10 45 -1z m520 -11 c3 -5 -1 -10 -9
-10 -9 0 -16 5 -16 10 0 6 4 10 9 10 6 0 13 -4 16 -10z m336 -13 c-5 -5 -24
-10 -40 -11 l-31 -1 22 -17 c15 -11 25 -13 29 -6 10 16 21 -9 14 -32 -5 -16
-2 -20 19 -20 14 0 26 -5 26 -11 0 -9 -13 -9 -77 1 -2 0 -3 9 -3 21 0 11 -5
17 -10 14 -6 -4 -8 -11 -4 -16 6 -11 -13 -39 -28 -39 -5 0 -4 9 2 19 7 15 6
23 -4 34 -8 8 -16 23 -18 33 -2 10 -7 23 -13 27 -5 5 11 7 37 4 34 -3 45 -1
42 8 -4 9 3 11 21 7 18 -3 23 -8 16 -15z m1029 7 c0 -2 -15 -4 -32 -4 -23 0
-29 3 -19 9 12 8 51 4 51 -5z m187 -16 c-3 -7 -5 -2 -5 12 0 14 2 19 5 13 2
-7 2 -19 0 -25z m-2122 12 c3 -5 1 -10 -4 -10 -6 0 -11 5 -11 10 0 6 2 10 4
10 3 0 8 -4 11 -10z m485 6 c0 -2 -7 -9 -15 -16 -13 -11 -14 -10 -9 4 5 14 24
23 24 12z m329 -140 c19 -32 43 -66 53 -75 27 -22 51 -70 44 -87 -3 -8 -17
-14 -32 -14 -32 0 -117 85 -140 138 -27 65 -11 186 20 154 4 -4 7 -2 6 3 -1 6
-1 15 0 20 2 6 6 -10 9 -35 4 -25 22 -72 40 -104z m431 123 c0 -6 -4 -7 -10
-4 -5 3 -10 11 -10 16 0 6 5 7 10 4 6 -3 10 -11 10 -16z m-90 1 c0 -5 -4 -10
-10 -10 -5 0 -10 5 -10 10 0 6 5 10 10 10 6 0 10 -4 10 -10z m890 -4 c0 -8 3
-23 6 -33 5 -16 4 -16 -10 1 -18 22 -21 46 -6 46 6 0 10 -6 10 -14z m-2103
-78 c-3 -24 0 -38 7 -38 10 0 -13 -20 -24 -20 -3 0 -4 24 -3 52 l2 53 -10 -40
c-6 -22 -8 -52 -6 -67 2 -15 0 -25 -5 -22 -9 6 -11 108 -2 142 l6 22 20 -22
c14 -17 18 -33 15 -60z m153 70 c0 -4 -4 -9 -10 -13 -14 -9 -1 -33 17 -31 9 0
18 -4 20 -10 2 -7 -8 -9 -27 -6 -23 3 -30 0 -30 -12 0 -10 6 -13 15 -10 8 4
15 1 15 -5 0 -6 7 -8 15 -5 8 4 15 1 15 -5 0 -7 10 -16 23 -21 21 -8 21 -9 -5
-9 -16 -1 -28 3 -28 8 0 5 -12 11 -27 13 -27 3 -28 6 -29 58 -2 48 1 56 17 56
10 0 19 -4 19 -8z m410 8 c0 -2 -7 -9 -15 -16 -13 -11 -14 -10 -9 4 5 14 24
23 24 12z m99 -3 c0 -5 -4 -17 -9 -28 -8 -18 -9 -17 -9 8 -1 15 4 27 9 27 6 0
10 -3 9 -7z m1306 -3 c-3 -5 -16 -10 -28 -9 -21 0 -21 1 -2 9 28 12 37 12 30
0z m679 -32 c-9 -14 -24 2 -24 25 1 21 1 21 15 3 8 -10 12 -23 9 -28z m-2054
28 c0 -3 -4 -8 -10 -11 -5 -3 -10 -1 -10 4 0 6 5 11 10 11 6 0 10 -2 10 -4z
m600 -6 c13 -8 13 -10 -2 -10 -9 0 -20 5 -23 10 -8 13 5 13 25 0z m1175 -29
c4 -15 3 -21 -3 -17 -5 3 -12 17 -15 32 -5 30 8 20 18 -15z m-2280 9 c8 -24
-3 -98 -15 -105 -4 -3 -10 4 -13 14 -3 12 1 22 9 25 8 3 14 15 14 26 0 12 -4
18 -10 15 -5 -3 -7 0 -4 8 3 8 1 18 -5 22 -7 4 -11 -3 -11 -16 0 -17 -3 -20
-11 -12 -7 7 -9 19 -6 27 9 23 44 20 52 -4z m2130 10 c3 -5 1 -10 -4 -10 -6 0
-11 5 -11 10 0 6 2 10 4 10 3 0 8 -4 11 -10z m87 -14 c7 4 8 2 4 -5 -10 -15
-26 -4 -25 17 1 15 2 15 6 -1 2 -9 9 -14 15 -11z m-2501 -26 c38 -39 61 -51
57 -29 -2 6 3 14 11 17 10 3 12 0 8 -12 -5 -12 -3 -16 5 -13 7 2 12 10 10 17
-2 10 0 11 11 2 8 -7 18 -8 22 -4 5 4 5 2 1 -5 -4 -7 0 -29 9 -49 8 -20 15
-47 15 -60 0 -27 -32 -48 -62 -41 -15 4 -17 3 -7 -9 6 -7 16 -11 22 -7 6 3 7
1 3 -5 -4 -7 -2 -12 5 -12 10 0 10 -3 1 -12 -13 -13 -42 5 -42 28 0 7 -15 28
-33 47 -18 19 -42 55 -54 78 -21 45 -37 109 -27 109 4 0 24 -18 45 -40z m1293
-21 c2 -24 -2 -61 -9 -81 l-12 -37 31 24 c34 25 86 43 86 28 0 -5 -15 -13 -32
-18 -18 -6 -33 -15 -33 -22 0 -14 -13 -28 -27 -28 -18 0 -21 -25 -4 -31 9 -3
16 -15 16 -25 0 -26 -16 -24 -23 2 -3 12 -10 18 -17 14 -7 -4 -9 5 -6 32 2 21
5 76 5 123 1 58 4 81 11 74 6 -6 12 -31 14 -55z m1096 40 c0 -5 -4 -9 -10 -9
-5 0 -10 7 -10 16 0 8 5 12 10 9 6 -3 10 -10 10 -16z m-1926 -17 c3 -5 -1 -9
-9 -9 -8 0 -12 4 -9 9 3 4 7 8 9 8 2 0 6 -4 9 -8z m-741 -32 c-3 -11 -9 -20
-14 -20 -5 0 -9 -7 -9 -15 0 -8 -7 -15 -15 -15 -22 0 -18 27 5 40 11 6 20 18
20 26 0 8 4 13 9 10 5 -3 7 -15 4 -26z m1633 5 c3 -17 2 -17 -20 -9 -9 3 -16
10 -16 16 0 5 5 6 10 3 6 -3 10 -1 10 6 0 16 13 3 16 -16z m1156 -24 c-3 -8
-1 -12 5 -8 5 3 10 1 11 -6 1 -7 3 -24 6 -39 3 -20 0 -28 -10 -28 -15 0 -19
-12 -7 -24 4 -4 8 -19 10 -34 l3 -27 -16 29 c-9 15 -14 36 -11 47 3 10 0 21
-7 24 -8 4 -8 6 1 11 11 5 10 26 -3 84 -5 24 -5 24 9 5 8 -10 12 -26 9 -34z
m341 36 c12 12 7 -82 -6 -107 -17 -35 -37 -31 -60 10 -13 24 -14 29 -3 16 9
-11 16 -14 16 -7 0 7 5 9 12 5 9 -6 9 -9 1 -11 -7 -3 -9 -11 -6 -19 4 -11 9
-12 19 -3 16 13 19 39 5 39 -18 0 -22 34 -6 46 10 8 12 14 6 19 -6 3 -11 11
-11 17 0 7 4 7 13 -1 8 -6 17 -8 20 -4z m167 3 c0 -5 -2 -10 -4 -10 -3 0 -8 5
-11 10 -3 6 -1 10 4 10 6 0 11 -4 11 -10z m-2284 -8 c8 -5 4 -13 -12 -25 -13
-10 -24 -14 -24 -9 0 6 8 13 17 16 15 6 15 8 3 16 -8 6 -10 10 -5 10 6 0 15
-4 21 -8z m1451 -5 c13 16 14 15 10 -18 -3 -21 0 -42 6 -49 10 -10 7 -12 -11
-7 -12 3 -20 1 -17 -3 7 -12 -5 -41 -15 -35 -5 3 -6 14 -3 25 3 11 1 20 -4 20
-10 0 -7 40 4 70 5 12 7 12 10 -3 5 -18 5 -18 20 0z m113 -8 c0 -5 -4 -9 -8
-9 -5 0 -9 7 -9 15 0 8 4 12 9 9 4 -3 8 -9 8 -15z m130 0 c0 -6 -4 -7 -10 -4
-5 3 -10 11 -10 16 0 6 5 7 10 4 6 -3 10 -11 10 -16z m-1570 -38 c0 -32 -6
-24 -14 19 -4 25 -3 31 4 20 5 -8 10 -26 10 -39z m1546 11 c-9 -8 -26 10 -26
26 1 15 2 15 15 -2 8 -11 13 -21 11 -24z m181 16 c-3 -8 -6 -5 -6 6 -1 11 2
17 5 13 3 -3 4 -12 1 -19z m339 -5 c-2 -16 -9 -28 -16 -28 -14 0 -28 -28 -29
-57 -1 -12 4 -16 17 -12 14 5 15 4 2 -5 -28 -20 -43 -13 -35 16 6 25 53 113
60 113 2 0 2 -12 1 -27z m-2421 -3 c-3 -4 1 -10 7 -13 7 -2 1 -4 -13 -3 -22 1
-24 4 -16 18 6 9 15 14 19 12 5 -3 6 -9 3 -14z m-643 -18 c10 -8 15 -19 11
-25 -4 -6 -1 -7 6 -2 15 9 49 -25 43 -43 -2 -7 2 -10 12 -6 10 4 18 0 22 -10
3 -9 13 -16 21 -16 10 0 12 -6 7 -22 -6 -20 -5 -21 10 -9 9 7 16 9 16 5 0 -5
12 -15 28 -22 39 -18 65 -58 58 -88 -4 -13 -14 -25 -24 -25 -14 -1 -13 -2 3
-6 29 -8 65 -34 65 -47 0 -7 6 -13 13 -14 124 -13 183 -36 210 -83 16 -28 15
-31 -4 -50 -23 -23 -64 -23 -92 0 -16 14 -17 13 -11 -5 5 -15 3 -15 -11 4 -16
22 -16 25 -1 41 15 16 15 19 2 24 -8 3 -17 1 -20 -6 -2 -7 -5 -4 -5 6 -1 10
-5 16 -10 13 -5 -4 -11 -1 -13 5 -5 16 -85 24 -102 10 -11 -9 -20 -10 -33 -2
-10 6 -14 11 -10 11 5 0 5 5 2 10 -5 8 -11 8 -20 0 -14 -12 -46 12 -44 33 0 8
2 9 5 1 3 -6 16 -9 29 -6 14 2 22 9 18 15 -4 7 0 8 13 2 10 -4 30 -9 44 -12
24 -4 23 -3 -5 14 -102 61 -132 85 -147 117 -13 26 -14 36 -5 40 7 2 5 5 -5 5
-20 1 -91 98 -82 113 4 6 3 8 -3 5 -5 -3 -20 8 -32 24 l-23 31 23 -7 c13 -4
32 -14 41 -23z m38 12 c0 -14 -3 -14 -15 -4 -8 7 -15 14 -15 16 0 2 7 4 15 4
8 0 15 -7 15 -16z m875 -15 c-4 -11 -8 -30 -9 -43 -3 -26 -23 -56 -37 -56 -14
0 -11 17 6 34 14 13 14 16 -3 25 -11 6 -22 7 -26 4 -3 -3 -6 1 -6 11 0 13 4
15 18 8 27 -14 43 -4 36 24 -5 20 -3 23 10 18 11 -4 15 -13 11 -25z m-988 -11
c-3 -7 -5 -2 -5 12 0 14 2 19 5 13 2 -7 2 -19 0 -25z m1143 18 c0 -8 -7 -16
-15 -20 -20 -7 -19 -25 2 -48 15 -17 15 -18 0 -18 -10 0 -17 7 -17 15 0 8 -4
15 -9 15 -21 0 -20 31 2 40 12 5 18 9 14 9 -11 1 2 21 14 21 5 0 9 -6 9 -14z
m-585 -6 c-3 -5 -10 -10 -16 -10 -5 0 -9 5 -9 10 0 6 7 10 16 10 8 0 12 -4 9
-10z m995 0 c0 -5 -5 -10 -11 -10 -5 0 -7 5 -4 10 3 6 8 10 11 10 2 0 4 -4 4
-10z m1095 -10 c3 -5 1 -10 -4 -10 -6 0 -11 5 -11 10 0 6 2 10 4 10 3 0 8 -4
11 -10z m605 0 c0 -5 -2 -10 -4 -10 -3 0 -8 5 -11 10 -3 6 -1 10 4 10 6 0 11
-4 11 -10z m-1613 -6 c-3 -3 -12 -4 -19 -1 -8 3 -5 6 6 6 11 1 17 -2 13 -5z
m999 -52 c-9 -8 -14 0 -21 33 l-6 30 16 -28 c9 -16 14 -31 11 -35z m231 36
c-3 -8 -6 -5 -6 6 -1 11 2 17 5 13 3 -3 4 -12 1 -19z m-2325 0 c-17 -17 -15
-25 9 -31 13 -3 18 -10 14 -17 -5 -9 -10 -9 -18 -1 -6 6 -21 11 -34 11 -13 0
-23 5 -23 10 0 6 5 10 10 10 6 0 10 5 10 11 0 5 -5 7 -12 3 -6 -4 -9 -3 -5 2
3 5 18 11 33 12 22 2 25 -1 16 -10z m43 1 c11 -16 1 -19 -13 -3 -7 8 -8 14 -3
14 5 0 13 -5 16 -11z m2565 -9 c0 -11 -7 -20 -15 -20 -13 0 -14 4 -5 20 6 11
13 20 15 20 3 0 5 -9 5 -20z m-3203 -17 c-3 -3 -11 -2 -17 2 -9 6 -9 10 1 16
14 8 27 -7 16 -18z m1435 2 c3 -14 1 -25 -3 -25 -5 0 -9 11 -9 25 0 14 2 25 4
25 2 0 6 -11 8 -25z m1598 15 c0 -5 -5 -10 -11 -10 -5 0 -7 5 -4 10 3 6 8 10
11 10 2 0 4 -4 4 -10z m-2946 -15 c3 -8 1 -15 -4 -15 -6 0 -10 7 -10 15 0 8 2
15 4 15 2 0 6 -7 10 -15z m1000 -15 c16 -33 10 -38 -19 -16 -11 8 -16 19 -12
30 9 22 13 20 31 -14z m542 8 c-20 -11 -44 1 -25 12 6 5 19 6 27 3 12 -5 12
-7 -2 -15z m-1146 8 c0 -2 -7 -7 -16 -10 -8 -3 -12 -2 -9 4 6 10 25 14 25 6z
m2110 -20 c0 -18 -18 -41 -26 -33 -4 3 -1 13 6 22 11 13 10 15 -1 12 -8 -2
-11 -2 -6 0 4 3 5 9 2 14 -4 5 1 6 9 3 9 -3 16 -11 16 -18z m-2568 -4 c-16 -5
-15 -29 1 -35 9 -4 8 -8 -3 -16 -12 -8 -16 -5 -18 15 -5 34 5 57 20 48 9 -6 9
-9 0 -12z m519 1 c16 -10 29 -21 29 -25 0 -10 -56 18 -65 32 -9 15 3 12 36 -7z
m415 4 c1 -1 5 -12 8 -25 7 -21 6 -21 -20 -11 -37 14 -55 29 -48 41 5 7 54 3
60 -5z m1590 -34 c-8 -9 -36 17 -36 33 0 10 7 7 21 -7 11 -11 18 -23 15 -26z
m390 1 c-4 -20 -10 -34 -12 -31 -3 3 -2 21 2 41 3 21 9 35 11 32 3 -3 2 -21
-1 -42z m-1711 26 c3 -5 -1 -10 -9 -10 -9 0 -16 5 -16 10 0 6 4 10 9 10 6 0
13 -4 16 -10z m435 3 c0 -5 -5 -15 -10 -23 -7 -12 -9 -10 -7 8 1 19 17 33 17
15z m24 -28 c-9 -14 -18 -25 -21 -25 -5 0 5 18 20 38 17 22 18 13 1 -13z m717
3 c-4 -13 -6 -30 -4 -38 2 -8 -2 -5 -8 7 -9 17 -9 26 1 38 17 21 21 19 11 -7z
m306 2 c-3 -11 -1 -18 3 -15 12 8 40 -53 33 -72 -5 -12 -2 -15 8 -11 9 4 21
-2 28 -13 6 -11 15 -18 19 -15 4 2 8 -4 8 -15 0 -10 -6 -19 -13 -19 -7 0 -13
9 -13 21 0 11 -4 18 -9 14 -12 -7 -53 45 -47 61 3 7 -1 15 -8 17 -8 3 -18 19
-24 36 -9 26 -8 31 5 31 10 0 14 -6 10 -20z m-2730 -22 c-3 -7 -5 -2 -5 12 0
14 2 19 5 13 2 -7 2 -19 0 -25z m528 22 c3 -5 1 -10 -4 -10 -6 0 -11 5 -11 10
0 6 2 10 4 10 3 0 8 -4 11 -10z m1085 0 c0 -5 -2 -10 -4 -10 -3 0 -8 5 -11 10
-3 6 -1 10 4 10 6 0 11 -4 11 -10z m-943 -62 c-2 -13 -4 -3 -4 22 0 25 2 35 4
23 2 -13 2 -33 0 -45z m93 47 c7 -8 9 -15 6 -15 -4 0 -14 7 -22 15 -9 8 -11
15 -6 15 5 0 15 -7 22 -15z m-133 -15 c-1 -11 -8 -20 -17 -21 -10 0 -9 -3 5
-9 11 -5 15 -9 8 -9 -14 -1 -10 -36 5 -36 6 0 14 -4 19 -9 5 -5 3 -6 -4 -2 -9
5 -13 -1 -13 -18 0 -14 5 -26 10 -26 6 0 10 5 10 10 0 6 5 10 12 10 9 0 9 -3
0 -12 -17 -17 -15 -38 5 -60 15 -17 15 -18 0 -18 -10 0 -17 7 -17 15 0 9 -7
18 -15 21 -9 4 -15 11 -14 18 1 6 -4 25 -11 41 -18 43 -26 120 -11 111 6 -4
11 -2 11 3 0 6 4 11 9 11 6 0 9 -9 8 -20z m503 -13 c28 -25 36 -39 35 -67 0
-19 -4 -35 -10 -35 -5 0 -9 6 -7 13 2 6 -1 12 -6 12 -6 0 -13 11 -16 25 -7 26
-40 50 -57 40 -6 -4 -2 -14 11 -25 11 -9 20 -23 20 -30 0 -6 -16 4 -35 24 -19
20 -44 36 -55 36 -23 0 -27 -17 -5 -22 10 -2 6 -7 -11 -15 -23 -11 -24 -10
-12 4 11 14 10 15 -12 9 -24 -7 -24 -6 -6 8 27 22 16 28 -18 10 -16 -8 -31
-12 -33 -10 -11 10 62 38 88 34 17 -3 29 0 29 6 0 6 5 4 10 -4 8 -13 10 -12
10 3 0 28 41 20 80 -16z m2229 -10 c1 -5 -3 -5 -9 -2 -5 3 -10 16 -9 28 0 21
1 21 9 2 5 -11 9 -24 9 -28z m-3211 18 c-9 -9 -68 -14 -68 -6 0 5 16 9 36 9
19 0 34 -2 32 -3z m1390 -20 c-3 -3 -9 2 -12 12 -6 14 -5 15 5 6 7 -7 10 -15
7 -18z m961 -50 c-6 -25 -9 -61 -6 -80 7 -40 -9 -47 -23 -11 -9 25 -7 45 12
118 9 33 15 43 20 33 5 -8 3 -35 -3 -60z m286 65 c3 -5 1 -10 -4 -10 -6 0 -11
5 -11 10 0 6 2 10 4 10 3 0 8 -4 11 -10z m535 -5 c20 -24 6 -28 -15 -5 -10 11
-13 20 -8 20 6 0 16 -7 23 -15z m-155 -6 c11 -16 1 -19 -13 -3 -7 8 -8 14 -3
14 5 0 13 -5 16 -11z m74 -15 c-15 -18 -22 -13 -13 10 3 9 10 13 16 10 5 -3 4
-12 -3 -20z m-3189 1 c0 -2 -7 -5 -15 -9 -9 -3 -15 0 -15 9 0 9 6 12 15 9 8
-4 15 -7 15 -9z m2283 2 c3 -8 1 -20 -4 -28 -6 -10 -9 -7 -9 14 0 29 5 35 13
14z m533 -2 c-3 -8 -1 -15 4 -15 6 0 10 -4 10 -10 0 -5 -6 -7 -14 -4 -16 6
-18 44 -3 44 5 0 7 -7 3 -15z m-2462 -10 c-4 -8 -10 -12 -15 -9 -11 6 -2 24
11 24 5 0 7 -7 4 -15z m324 -10 c-3 -3 -9 2 -12 12 -6 14 -5 15 5 6 7 -7 10
-15 7 -18z m62 10 c0 -8 -2 -15 -4 -15 -2 0 -6 7 -10 15 -3 8 -1 15 4 15 6 0
10 -7 10 -15z m835 5 c3 -5 1 -10 -4 -10 -6 0 -11 5 -11 10 0 6 2 10 4 10 3 0
8 -4 11 -10z m1359 -6 c3 -8 2 -12 -4 -9 -6 3 -10 10 -10 16 0 14 7 11 14 -7z
m-2844 -4 c0 -5 -12 -10 -27 -9 l-28 1 25 8 c14 4 26 8 28 9 1 1 2 -3 2 -9z
m1447 -36 c-10 -10 -37 16 -37 34 0 13 4 12 22 -5 12 -13 19 -25 15 -29z
m1474 19 c12 -14 12 -16 0 -8 -12 7 -13 1 -8 -31 6 -36 5 -37 -8 -20 -17 23
-19 42 -5 51 6 4 8 11 5 16 -10 15 2 10 16 -8z m-1373 -37 c13 4 13 3 -2 -6
-21 -14 -36 0 -31 29 6 27 8 27 12 -1 3 -20 9 -26 21 -22z m-1 22 c-3 -8 -6
-5 -6 6 -1 11 2 17 5 13 3 -3 4 -12 1 -19z m1637 7 c-4 -8 -8 -15 -10 -15 -2
0 -4 7 -4 15 0 8 4 15 10 15 5 0 7 -7 4 -15z m-2569 -5 c4 -6 10 -8 15 -5 5 3
14 -4 20 -16 10 -17 9 -20 -2 -13 -7 4 -5 -2 5 -13 16 -18 16 -21 2 -26 -8 -4
-15 -3 -15 2 0 4 -11 25 -25 45 -13 20 -20 36 -15 36 5 0 12 -5 15 -10z m475
0 c0 -5 -4 -10 -10 -10 -5 0 -10 5 -10 10 0 6 5 10 10 10 6 0 10 -4 10 -10z
m1760 0 c16 0 18 -29 2 -42 -10 -8 -13 -9 -9 -1 4 7 -3 21 -15 34 -19 18 -20
21 -5 15 10 -3 22 -6 27 -6z m200 -27 c0 -32 -5 -28 -14 10 -4 19 -3 26 4 22
5 -3 10 -18 10 -32z m-3000 17 c0 -5 -4 -10 -9 -10 -6 0 -13 5 -16 10 -3 6 1
10 9 10 9 0 16 -4 16 -10z m265 0 c-3 -5 -14 -10 -23 -10 -15 0 -15 2 -2 10
20 13 33 13 25 0z m2165 0 c0 -5 -4 -10 -10 -10 -5 0 -10 5 -10 10 0 6 5 10
10 10 6 0 10 -4 10 -10z m-2857 -54 c-3 -21 -12 -40 -20 -43 -21 -8 -27 4 -15
34 5 15 13 37 16 47 11 33 26 3 19 -38z m741 32 c9 -46 2 -69 -21 -74 -43 -11
-78 21 -64 59 6 17 8 17 25 -2 17 -19 17 -21 3 -21 -10 0 -17 -5 -17 -11 0 -6
10 -9 23 -7 12 2 21 9 20 16 -2 6 4 12 12 12 17 0 20 16 5 25 -13 8 -13 25 0
25 5 0 12 -10 14 -22z m196 -11 c0 -5 -4 -5 -10 -2 -5 3 -10 14 -10 23 0 15 2
15 10 2 5 -8 10 -19 10 -23z m2190 28 c0 -2 -10 -10 -22 -16 -21 -11 -22 -11
-9 4 13 16 31 23 31 12z m-1856 -21 c3 -8 2 -12 -4 -9 -6 3 -10 10 -10 16 0
14 7 11 14 -7z m628 -60 c-26 -20 -32 -17 -32 19 0 18 -6 40 -12 47 -7 8 4 0
24 -19 34 -31 36 -35 20 -47z m861 56 c3 -12 0 -20 -8 -20 -8 0 -11 8 -8 20 3
11 7 20 8 20 1 0 5 -9 8 -20z m747 3 c0 -8 -4 -11 -10 -8 -5 3 -10 1 -10 -4 0
-6 -9 -11 -20 -11 -11 0 -20 2 -20 4 0 2 -3 11 -6 20 -5 12 1 15 30 14 24 -1
36 -6 36 -15z m-3060 -19 c0 -21 -27 -17 -33 5 -3 14 0 17 14 14 11 -3 19 -12
19 -19z m1340 16 c0 -5 20 -31 45 -57 46 -49 53 -63 34 -63 -5 0 -7 -5 -3 -12
5 -8 2 -9 -10 -5 -10 4 -15 3 -11 -3 3 -6 13 -10 21 -10 8 0 14 -7 14 -15 0
-9 12 -20 26 -26 15 -5 25 -12 22 -15 -3 -2 -17 0 -31 5 -21 8 -25 7 -21 -4 3
-7 12 -11 20 -8 9 3 14 -2 14 -15 0 -23 27 -38 32 -17 2 11 8 10 28 -5 21 -17
23 -21 10 -30 -8 -5 -21 -8 -27 -5 -7 2 -13 0 -13 -6 0 -6 -4 -7 -10 -4 -5 3
-10 1 -10 -4 0 -6 8 -11 18 -12 10 0 12 -3 5 -6 -7 -2 -13 -9 -13 -14 0 -6 5
-7 10 -4 6 3 10 -1 10 -9 0 -31 -18 -15 -41 37 -12 28 -23 57 -23 62 0 6 -12
28 -26 50 -51 82 -99 205 -79 205 5 0 9 -4 9 -10z m1030 -20 c0 -32 -17 -31
-18 1 0 16 4 27 9 24 5 -4 9 -15 9 -25z m770 27 c0 -1 4 -17 9 -35 12 -41 7
-41 -13 0 -19 37 -19 38 -6 38 6 0 10 -1 10 -3z m-3110 -45 c0 -21 -2 -24 -10
-12 -13 20 -13 53 0 45 6 -3 10 -18 10 -33z m1139 -15 c-3 -18 12 -47 24 -47
7 0 7 4 -1 12 -14 14 -16 28 -3 28 11 0 25 -50 16 -58 -6 -6 -115 101 -115
112 0 4 18 -3 40 -14 23 -12 40 -26 39 -33z m325 37 c3 -8 2 -12 -4 -9 -6 3
-10 10 -10 16 0 14 7 11 14 -7z m1266 6 c0 -5 -4 -10 -10 -10 -5 0 -10 5 -10
10 0 6 5 10 10 10 6 0 10 -4 10 -10z m-1945 -10 c3 -5 1 -10 -4 -10 -6 0 -11
5 -11 10 0 6 2 10 4 10 3 0 8 -4 11 -10z m712 -37 c-3 -10 -5 -2 -5 17 0 19 2
27 5 18 2 -10 2 -26 0 -35z m707 32 c3 -8 1 -15 -4 -15 -6 0 -10 7 -10 15 0 8
2 15 4 15 2 0 6 -7 10 -15z m173 -17 c-3 -7 -5 -2 -5 12 0 14 2 19 5 13 2 -7
2 -19 0 -25z m282 25 c0 -5 -4 -17 -9 -28 -8 -19 -9 -19 -9 2 -1 12 -7 24 -13
26 -7 3 -3 6 10 6 12 1 22 -2 21 -6z m-2599 -11 c0 -15 -11 -21 -27 -15 -12 5
-12 7 -1 14 17 11 28 11 28 1z m390 -8 c0 -8 -5 -12 -10 -9 -6 4 -8 11 -5 16
9 14 15 11 15 -7z m34 -24 c-6 -5 -24 21 -24 34 0 6 6 1 14 -10 8 -10 12 -21
10 -24z m2136 30 c8 -5 11 -10 5 -10 -5 0 -17 5 -25 10 -8 5 -10 10 -5 10 6 0
17 -5 25 -10z m-1415 -11 c12 -19 -5 -23 -22 -6 -16 16 -16 17 -1 17 9 0 20
-5 23 -11z m1565 -4 c14 -16 10 -18 -14 -9 -9 3 -16 10 -16 15 0 14 16 11 30
-6z m80 -7 c0 -11 -5 -18 -12 -16 -19 7 -21 35 -3 35 8 0 15 -9 15 -19z m142
-10 c-9 -9 -12 -7 -12 12 0 19 3 21 12 12 9 -9 9 -15 0 -24z m-2653 -15 c14
-11 14 -12 1 -13 -27 0 -43 17 -35 36 6 16 8 16 13 4 3 -8 12 -20 21 -27z
m2259 2 c0 -28 -13 -33 -22 -10 -7 18 3 47 14 40 4 -2 8 -16 8 -30z m-2723
-35 c5 -23 4 -32 -3 -25 -5 6 -12 28 -15 50 -7 47 7 27 18 -25z m2932 38 c-3
-8 -6 -5 -6 6 -1 11 2 17 5 13 3 -3 4 -12 1 -19z m151 10 c7 -9 5 -19 -8 -36
-12 -15 -20 -18 -23 -10 -2 7 -9 -3 -15 -22 -10 -33 -10 -34 -11 -7 -1 30 24
87 38 87 5 0 13 -6 19 -12z m-577 -21 c-13 -13 -26 -3 -16 12 3 6 11 8 17 5 6
-4 6 -10 -1 -17z m-1901 3 c0 -5 -4 -10 -10 -10 -5 0 -10 5 -10 10 0 6 5 10
10 10 6 0 10 -4 10 -10z m46 -12 l19 -21 -27 18 c-29 18 -34 25 -20 25 5 0 17
-10 28 -22z m2154 -14 c0 -13 -4 -24 -10 -24 -5 0 -10 14 -10 31 0 17 4 28 10
24 6 -3 10 -17 10 -31z m100 26 c-19 -13 -30 -13 -30 0 0 6 10 10 23 10 18 0
19 -2 7 -10z m-2150 -15 c0 -8 -4 -15 -10 -15 -5 0 -10 7 -10 15 0 8 5 15 10
15 6 0 10 -7 10 -15z m1638 -27 c8 -10 12 -18 7 -18 -12 0 -34 33 -34 50 1 13
1 13 6 0 3 -8 12 -23 21 -32z m26 33 c3 -5 -1 -11 -9 -15 -15 -6 -29 7 -18 18
9 9 21 8 27 -3z m-1797 -29 c13 -8 20 -19 16 -25 -3 -5 -1 -7 5 -3 14 9 65
-12 57 -24 -3 -5 0 -7 8 -4 15 5 34 -13 23 -23 -8 -9 -66 18 -60 28 3 5 -1 6
-8 4 -14 -6 -98 51 -98 66 0 10 25 2 57 -19z m1703 8 c-12 -22 -50 -46 -50
-32 0 6 9 12 20 15 11 3 20 12 20 21 0 9 5 16 10 16 7 0 7 -6 0 -20z m-990 0
c0 -5 -2 -10 -4 -10 -3 0 -8 5 -11 10 -3 6 -1 10 4 10 6 0 11 -4 11 -10z m960
6 c0 -3 -4 -8 -10 -11 -5 -3 -10 -1 -10 4 0 6 5 11 10 11 6 0 10 -2 10 -4z
m194 -17 c-3 -5 -10 -7 -15 -3 -5 3 -7 10 -3 15 3 5 10 7 15 3 5 -3 7 -10 3
-15z m-2462 -22 c-6 -7 -9 -23 -5 -35 3 -12 1 -22 -5 -22 -17 0 -22 42 -6 57
8 8 11 20 8 26 -5 9 -3 8 6 0 10 -9 10 -16 2 -26z m1347 10 c6 -8 8 -17 4 -20
-3 -4 0 -7 8 -7 8 0 20 -5 26 -11 14 -14 5 -42 -10 -32 -6 3 -7 1 -3 -6 4 -6
16 -9 27 -6 13 4 19 2 19 -9 0 -9 -5 -16 -11 -16 -5 0 -8 -4 -5 -9 7 -11 -32
-46 -41 -37 -4 4 -1 11 7 17 13 8 13 10 0 18 -8 5 -18 7 -22 5 -5 -3 -11 3
-15 13 -4 10 -11 21 -17 25 -8 5 -7 16 1 38 10 28 2 43 -12 20 -4 -6 -11 -8
-16 -5 -16 10 -10 23 14 28 12 2 25 5 28 6 4 0 12 -5 18 -12z m1390 -25 c-2
-21 0 -43 4 -49 4 -6 2 -15 -4 -19 -8 -4 -9 -3 -5 4 4 7 3 12 -2 12 -15 0 -23
73 -9 82 18 12 19 11 16 -30z m-2699 6 c0 -28 34 -48 79 -48 42 0 49 -3 66
-32 28 -47 35 -67 26 -73 -5 -2 -12 7 -15 21 -10 39 -55 73 -98 74 -27 0 -42
7 -57 26 -12 15 -21 23 -21 19 0 -5 -2 -6 -5 -3 -3 3 -3 13 1 22 6 17 24 13
24 -6z m280 -3 c0 -18 -5 -25 -20 -25 -11 0 -20 2 -20 4 0 2 -3 11 -6 19 -4
11 2 17 18 20 13 2 24 5 26 6 1 0 2 -10 2 -24z m2120 15 c0 -5 -2 -10 -4 -10
-3 0 -8 5 -11 10 -3 6 -1 10 4 10 6 0 11 -4 11 -10z m517 -12 c-3 -8 -6 -5 -6
6 -1 11 2 17 5 13 3 -3 4 -12 1 -19z m-1362 2 c-3 -5 -14 -10 -23 -9 -14 0
-13 2 3 9 27 11 27 11 20 0z m1204 -34 c4 -17 5 -35 2 -41 -3 -5 -7 -2 -9 8
-2 9 -8 17 -13 17 -6 0 -8 4 -4 9 3 5 1 12 -5 16 -5 3 -10 13 -10 20 0 26 30
4 39 -29z m111 9 c5 3 8 -21 8 -52 -1 -52 -2 -55 -11 -28 -5 17 -14 35 -19 42
-6 7 -6 26 -2 45 7 28 9 30 12 10 2 -12 7 -20 12 -17z m-1300 0 c0 -8 -7 -15
-15 -15 -8 0 -15 -5 -15 -12 0 -6 -2 -9 -5 -6 -9 8 6 38 16 32 5 -3 9 0 9 5 0
6 2 11 5 11 3 0 5 -7 5 -15z m1500 5 c0 -5 -5 -10 -11 -10 -5 0 -7 5 -4 10 3
6 8 10 11 10 2 0 4 -4 4 -10z m-2960 -4 c0 -3 -4 -8 -10 -11 -5 -3 -10 -1 -10
4 0 6 5 11 10 11 6 0 10 -2 10 -4z m635 -6 c-3 -5 -12 -10 -18 -10 -7 0 -6 4
3 10 19 12 23 12 15 0z m1595 0 c0 -5 -5 -10 -11 -10 -5 0 -7 5 -4 10 3 6 8
10 11 10 2 0 4 -4 4 -10z m-1815 -10 c3 -5 1 -10 -4 -10 -6 0 -11 5 -11 10 0
6 2 10 4 10 3 0 8 -4 11 -10z m180 0 c3 -5 -1 -10 -9 -10 -9 0 -16 5 -16 10 0
6 4 10 9 10 6 0 13 -4 16 -10z m2082 -12 c-3 -8 -6 -5 -6 6 -1 11 2 17 5 13 3
-3 4 -12 1 -19z m123 12 c0 -5 -4 -10 -10 -10 -5 0 -10 5 -10 10 0 6 5 10 10
10 6 0 10 -4 10 -10z m-2694 -60 c3 0 2 10 -1 21 l-7 22 29 -21 c16 -11 29
-30 29 -41 0 -26 -3 -26 -27 2 -10 12 -18 17 -19 11 0 -5 9 -20 20 -32 12 -12
17 -22 11 -22 -12 0 -71 93 -70 111 0 8 7 -1 15 -18 8 -18 17 -33 20 -33z
m-175 19 c5 -8 8 -7 12 2 4 10 6 9 6 -3 1 -23 -25 -22 -69 2 l-35 19 39 -4
c22 -3 43 -10 47 -16z m1755 -6 c-10 -10 -19 5 -10 18 6 11 8 11 12 0 2 -7 1
-15 -2 -18z m837 12 c-3 -9 -8 -14 -10 -11 -3 3 -2 9 2 15 9 16 15 13 8 -4z
m284 -17 c-3 -7 -5 -2 -5 12 0 14 2 19 5 13 2 -7 2 -19 0 -25z m190 -5 c-3
-10 -5 -4 -5 12 0 17 2 24 5 18 2 -7 2 -21 0 -30z m-2294 -5 c8 -17 12 -38 9
-47 -4 -11 -8 -6 -13 16 -3 18 -12 40 -19 48 -7 8 -8 15 -2 15 5 0 16 -14 25
-32z m-63 2 c0 -5 -4 -10 -9 -10 -6 0 -13 5 -16 10 -3 6 1 10 9 10 9 0 16 -4
16 -10z m1440 -26 c0 -28 -20 -65 -32 -58 -9 6 -9 9 0 12 7 2 9 8 6 13 -3 6
-1 16 6 24 7 9 8 15 0 20 -5 3 -10 11 -10 17 0 7 6 6 15 -2 8 -7 15 -18 15
-26z m570 27 c0 -6 -4 -12 -8 -15 -5 -3 -9 1 -9 9 0 8 4 15 9 15 4 0 8 -4 8
-9z m-2244 -18 c-3 -20 -27 -24 -33 -6 -2 6 4 13 14 16 10 3 19 5 20 6 1 0 0
-7 -1 -16z m892 5 c-3 -7 9 -19 26 -28 43 -22 96 -120 65 -120 -7 0 -17 -7
-24 -16 -11 -16 -16 -15 -58 6 -37 18 -49 32 -65 71 -19 45 -19 48 -3 63 10 9
23 16 29 16 7 0 12 5 12 10 0 6 5 10 11 10 6 0 9 -5 7 -12z m382 2 c0 -5 -7
-10 -15 -10 -8 0 -15 5 -15 10 0 6 7 10 15 10 8 0 15 -4 15 -10z m-1110 -4 c0
-11 -19 -15 -25 -6 -3 5 1 10 9 10 9 0 16 -2 16 -4z m1082 -28 c-9 -9 -15 -9
-24 0 -9 9 -7 12 12 12 19 0 21 -3 12 -12z m561 -1 c15 -16 20 -37 9 -37 -5 0
-14 11 -20 25 -13 27 -8 33 11 12z m314 -9 c-3 -8 -6 -5 -6 6 -1 11 2 17 5 13
3 -3 4 -12 1 -19z m29 7 c-3 -8 0 -15 6 -15 6 0 9 -3 5 -6 -10 -11 -26 6 -20
21 3 8 7 15 10 15 3 0 3 -7 -1 -15z m100 4 c3 -6 1 -16 -6 -22 -10 -9 -11 -9
-5 2 4 8 2 17 -6 22 -9 6 -10 9 -2 9 6 0 15 -5 19 -11z m-946 -8 c0 -5 -9 -7
-20 -4 -11 3 -20 7 -20 9 0 2 9 4 20 4 11 0 20 -4 20 -9z m756 -18 c-7 -7 -26
7 -26 19 0 6 6 6 15 -2 9 -7 13 -15 11 -17z m541 5 c-3 -8 -6 -5 -6 6 -1 11 2
17 5 13 3 -3 4 -12 1 -19z m-2822 2 c3 -5 1 -10 -4 -10 -6 0 -11 5 -11 10 0 6
2 10 4 10 3 0 8 -4 11 -10z m435 0 c0 -5 5 -10 11 -10 5 0 7 5 4 10 -3 6 -1
10 4 10 6 0 11 -4 11 -10 0 -5 9 -10 20 -10 22 0 28 -25 8 -33 -7 -3 -3 -4 10
-4 12 1 22 5 22 9 0 4 7 5 16 1 12 -4 13 -7 3 -14 -11 -6 -10 -9 3 -14 10 -4
21 -4 26 -1 5 3 12 -9 16 -27 4 -17 10 -27 14 -21 9 13 90 16 98 3 3 -6 17
-14 30 -19 23 -9 34 -40 14 -40 -5 0 -10 -7 -10 -15 0 -11 -11 -15 -36 -15
-23 0 -33 4 -28 11 3 6 16 8 29 5 19 -5 22 -2 17 19 -6 33 -26 48 -67 49 -42
1 -56 -22 -26 -43 12 -7 21 -18 21 -23 0 -5 -14 1 -30 14 -17 12 -29 27 -26
33 2 7 0 18 -5 26 -8 12 -11 12 -20 -1 -9 -13 -10 -12 -5 3 4 13 0 17 -17 17
-32 1 -69 34 -61 55 6 14 3 16 -12 11 -11 -3 -29 3 -44 14 -20 16 -22 20 -7
20 9 0 17 -4 17 -10z m1005 0 c3 -5 -1 -10 -9 -10 -9 0 -16 5 -16 10 0 6 4 10
9 10 6 0 13 -4 16 -10z m390 -19 c-6 -5 -25 10 -25 20 0 5 6 4 14 -3 8 -7 12
-15 11 -17z m572 7 c-3 -8 -6 -5 -6 6 -1 11 2 17 5 13 3 -3 4 -12 1 -19z
m-2157 2 c0 -5 -2 -10 -4 -10 -3 0 -8 5 -11 10 -3 6 -1 10 4 10 6 0 11 -4 11
-10z m1740 -25 c0 -1 -9 -5 -19 -8 -14 -3 -20 2 -24 18 -4 22 -3 23 20 8 12
-8 23 -17 23 -18z m-502 0 c-3 -3 -9 2 -12 12 -6 14 -5 15 5 6 7 -7 10 -15 7
-18z m137 5 c3 -5 2 -10 -4 -10 -5 0 -13 5 -16 10 -3 6 -2 10 4 10 5 0 13 -4
16 -10z m739 -5 c3 -8 1 -15 -4 -15 -6 0 -10 7 -10 15 0 8 2 15 4 15 2 0 6 -7
10 -15z m243 -7 c-3 -8 -6 -5 -6 6 -1 11 2 17 5 13 3 -3 4 -12 1 -19z m36 -8
c3 -11 2 -20 -3 -20 -8 0 -20 24 -20 41 0 17 17 1 23 -21z m-2590 7 c3 -8 0
-14 -7 -14 -7 0 -13 6 -13 14 0 7 4 13 8 13 4 0 9 -6 12 -13z m1987 3 c0 -5
-9 -10 -21 -10 -11 0 -17 5 -14 10 3 6 13 10 21 10 8 0 14 -4 14 -10z m152
-25 c3 -13 2 -22 -2 -20 -4 3 -10 16 -12 30 -3 13 -2 22 2 20 4 -3 10 -16 12
-30z m555 3 c-3 -7 -5 -2 -5 12 0 14 2 19 5 13 2 -7 2 -19 0 -25z m-2592 2
c-3 -5 -12 -10 -18 -10 -7 0 -6 4 3 10 19 12 23 12 15 0z m1412 -12 c-3 -8 -6
-5 -6 6 -1 11 2 17 5 13 3 -3 4 -12 1 -19z m859 7 c-3 -8 4 -25 14 -38 13 -16
20 -44 22 -87 3 -64 -8 -85 -31 -58 -56 66 -69 90 -69 133 -1 30 3 44 11 42 7
-1 11 3 10 8 -1 6 10 11 24 11 16 1 23 -2 19 -11z m-966 -5 c0 -5 -2 -10 -4
-10 -3 0 -8 5 -11 10 -3 6 -1 10 4 10 6 0 11 -4 11 -10z m490 -8 c3 -2 -1 -7
-9 -10 -11 -4 -11 -6 0 -14 11 -8 11 -9 -1 -5 -8 2 -15 10 -15 17 0 7 -6 15
-14 18 -9 3 -11 0 -6 -8 5 -9 4 -11 -4 -6 -18 12 -1 27 22 20 12 -3 24 -9 27
-12z m150 9 c0 -5 7 -17 16 -26 22 -22 13 -28 -14 -9 -22 15 -30 44 -12 44 6
0 10 -4 10 -9z m204 -7 c8 -21 8 -24 -3 -24 -5 0 -11 9 -14 20 -6 24 8 27 17
4z m656 6 c0 -5 -4 -10 -9 -10 -6 0 -13 5 -16 10 -3 6 1 10 9 10 9 0 16 -4 16
-10z m-3804 -17 c19 -25 17 -43 -3 -43 -30 0 -41 13 -32 38 10 27 18 28 35 5z
m2111 11 c-3 -3 -12 -4 -19 -1 -8 3 -5 6 6 6 11 1 17 -2 13 -5z m177 -43 c8
-12 8 -13 -1 -7 -9 5 -13 0 -13 -14 0 -12 3 -19 8 -17 4 3 13 -1 19 -9 7 -7 9
-15 4 -19 -5 -3 -12 1 -14 7 -3 7 -6 3 -6 -9 -1 -13 -5 -23 -10 -23 -14 0 -23
66 -14 108 5 26 8 31 11 17 2 -11 9 -26 16 -34z m202 19 c0 -25 -4 -25 -36 0
l-25 20 30 0 c24 0 31 -4 31 -20z m364 4 c0 -2 -7 -4 -15 -4 -8 0 -15 4 -15
10 0 5 7 7 15 4 8 -4 15 -8 15 -10z m-507 -9 c-3 -9 -8 -14 -10 -11 -3 3 -2 9
2 15 9 16 15 13 8 -4z m-206 -16 c2 -18 0 -19 -10 -6 -7 8 -19 17 -27 20 -9 3
-5 6 10 6 19 1 26 -4 27 -20z m926 -5 c4 -23 3 -24 -10 -11 -9 8 -12 20 -9 26
10 16 13 14 19 -15z m-513 -17 c18 -3 15 -5 -12 -6 -33 -1 -38 2 -38 22 1 20
2 20 13 5 7 -9 24 -18 37 -21z m593 8 c-3 -8 0 -15 6 -15 6 0 10 -11 9 -25 -3
-29 -10 -31 -28 -10 -7 8 -15 13 -19 11 -4 -3 -13 0 -21 5 -13 9 -13 10 0 6
18 -5 52 31 43 46 -3 6 -1 7 5 3 6 -4 9 -13 5 -21z m-2655 -5 c-7 -10 -14 -17
-17 -15 -4 4 18 35 25 35 2 0 -1 -9 -8 -20z m1257 2 c-3 -3 -11 0 -18 7 -9 10
-8 11 6 5 10 -3 15 -9 12 -12z m372 -34 c-17 -10 -27 0 -27 30 l0 27 20 -25
c13 -17 15 -27 7 -32z m59 -13 c-4 -22 -3 -25 10 -15 8 7 14 8 14 2 0 -13 -29
-36 -37 -29 -3 4 -12 2 -19 -4 -14 -12 -34 -4 -34 13 0 5 7 8 15 4 14 -5 19 5
16 32 -1 6 3 12 9 12 6 0 8 11 4 28 l-6 27 16 -22 c10 -13 15 -33 12 -48z
m771 35 c6 0 16 -7 23 -15 6 -8 17 -13 23 -12 12 2 35 -65 36 -107 1 -21 -3
-27 -14 -22 -9 3 -15 0 -15 -8 0 -20 -42 -28 -60 -11 -15 13 -16 12 -15 -13 1
-15 0 -18 -2 -7 -3 11 -9 24 -14 29 -12 13 -12 39 1 31 6 -3 11 2 11 12 1 17
2 17 6 1 2 -10 8 -18 11 -19 41 -5 50 -4 46 2 -2 4 0 19 6 33 6 16 6 27 0 31
-6 4 -10 15 -10 27 0 14 -5 18 -15 14 -9 -3 -15 0 -15 9 0 20 -20 15 -42 -10
-17 -20 -18 -19 -15 10 5 46 17 62 32 42 7 -10 17 -17 22 -17z m600 8 c-3 -8
-6 -5 -6 6 -1 11 2 17 5 13 3 -3 4 -12 1 -19z m-740 -22 c-1 -30 -21 -55 -42
-55 -5 -1 1 9 15 20 24 20 24 20 3 14 -17 -5 -23 -2 -23 9 0 8 8 17 18 19 13
4 11 5 -5 6 -17 1 -23 -5 -24 -21 -1 -17 -3 -18 -6 -6 -4 16 -7 15 -26 -5 -34
-34 -63 -71 -50 -63 7 4 17 -3 24 -16 9 -18 9 -21 -1 -11 -7 6 -19 9 -27 6
-12 -5 -11 -8 2 -24 13 -13 14 -22 6 -36 -10 -17 -10 -17 -11 0 0 9 -7 17 -16
17 -11 0 -14 6 -8 23 27 88 95 153 160 154 6 0 11 -14 11 -31z m-781 8 c26 -4
64 -38 64 -56 0 -20 -1 -20 -27 -2 -36 22 -73 57 -73 67 0 5 6 5 13 0 6 -4 17
-8 23 -9z m358 -36 c4 -17 2 -28 -4 -28 -5 0 -10 11 -10 24 0 13 -3 33 -6 43
-4 14 -4 15 4 3 5 -8 12 -27 16 -42z m96 31 c-7 -11 -14 -18 -17 -15 -8 8 5
36 17 36 7 0 7 -6 0 -21z m396 -6 c0 -12 -4 -19 -8 -17 -5 3 -6 9 -3 14 3 4
-7 13 -22 18 l-28 10 30 -1 c25 -2 31 -7 31 -24z m-2001 -1 c-3 -3 -11 0 -18
7 -9 10 -8 11 6 5 10 -3 15 -9 12 -12z m-360 -11 c-3 -6 -11 -8 -17 -5 -6 4
-5 9 3 15 16 10 23 4 14 -10z m16 -14 c-6 -6 -11 -19 -11 -28 0 -9 -7 -19 -15
-23 -20 -7 -19 -2 8 44 12 22 24 35 26 29 2 -6 -2 -16 -8 -22z m720 11 c11
-21 11 -22 -4 -9 -10 7 -17 17 -17 22 0 15 9 10 21 -13z m439 0 c0 -13 -23 -5
-28 10 -2 7 2 10 12 6 9 -3 16 -11 16 -16z m65 12 c-3 -5 -11 -10 -16 -10 -6
0 -7 5 -4 10 3 6 11 10 16 10 6 0 7 -4 4 -10z m494 -28 c0 -24 -1 -25 -9 -7
-12 28 -12 47 0 40 6 -3 10 -18 9 -33z m-1344 18 c3 -5 1 -10 -4 -10 -6 0 -11
5 -11 10 0 6 2 10 4 10 3 0 8 -4 11 -10z m2272 -12 c-3 -8 -6 -5 -6 6 -1 11 2
17 5 13 3 -3 4 -12 1 -19z m-2677 -7 c0 -6 -4 -13 -10 -16 -5 -3 -10 1 -10 9
0 9 5 16 10 16 6 0 10 -4 10 -9z m1815 -11 c3 -5 -1 -10 -9 -10 -9 0 -16 5
-16 10 0 6 4 10 9 10 6 0 13 -4 16 -10z m1165 -2 c0 -7 -5 -20 -10 -28 -8 -12
-10 -9 -10 13 0 15 5 27 10 27 6 0 10 -6 10 -12z m-3063 -34 c-7 -8 -57 15
-57 26 0 6 13 4 31 -5 17 -9 29 -19 26 -21z m157 21 c-4 -8 -9 -15 -13 -15 -4
0 -8 7 -8 15 0 8 6 15 13 15 8 0 11 -6 8 -15z m2176 5 c0 -5 -4 -10 -10 -10
-5 0 -10 5 -10 10 0 6 5 10 10 10 6 0 10 -4 10 -10z m-993 -6 c-3 -3 -12 -4
-19 -1 -8 3 -5 6 6 6 11 1 17 -2 13 -5z m538 -3 c3 -5 -2 -16 -10 -24 -8 -9
-15 -22 -15 -29 0 -8 5 -6 11 5 11 19 29 14 29 -9 0 -10 -8 -13 -24 -10 -14 2
-27 -1 -29 -7 -2 -7 -3 4 -2 24 3 51 23 76 40 50z m655 -12 c0 -11 -4 -17 -10
-14 -5 3 -10 13 -10 21 0 8 5 14 10 14 6 0 10 -9 10 -21z m225 -13 c-2 -18 -7
-42 -13 -52 -9 -15 -10 -11 -6 21 10 70 23 92 19 31z m529 9 c-29 -22 -42 -17
-15 6 13 11 26 17 29 14 3 -3 -3 -12 -14 -20z m-1304 -6 c0 -6 -4 -7 -10 -4
-5 3 -10 11 -10 16 0 6 5 7 10 4 6 -3 10 -11 10 -16z m363 1 c-3 -12 -8 -19
-11 -16 -5 6 5 36 12 36 2 0 2 -9 -1 -20z m-756 4 c-3 -3 -12 -4 -19 -1 -8 3
-5 6 6 6 11 1 17 -2 13 -5z m43 -4 c0 -5 -7 -7 -15 -4 -8 4 -15 8 -15 10 0 2
7 4 15 4 8 0 15 -4 15 -10z m56 -25 c-4 -14 -1 -25 7 -28 6 -3 -1 -6 -17 -6
-22 -1 -26 2 -17 12 8 11 5 13 -18 9 -16 -2 -32 1 -35 7 -4 7 1 11 13 11 12 0
21 6 21 14 0 9 8 12 26 8 21 -4 24 -9 20 -27z m750 -3 c-9 -8 -26 10 -26 26 1
15 2 15 15 -2 8 -11 13 -21 11 -24z m359 29 c3 -5 2 -12 -3 -15 -5 -3 -9 1 -9
9 0 17 3 19 12 6z m292 -13 c-3 -8 -6 -5 -6 6 -1 11 2 17 5 13 3 -3 4 -12 1
-19z m-2917 -14 c0 -8 -4 -14 -9 -14 -6 0 -9 9 -8 19 1 22 17 18 17 -5z m2251
-15 c21 -21 26 -44 7 -32 -7 4 -22 7 -33 6 -11 -2 -15 0 -9 2 6 3 9 20 7 38
-2 17 0 26 3 18 4 -7 15 -22 25 -32z m1010 4 c-12 -20 -14 -14 -5 12 4 9 9 14
11 11 3 -2 0 -13 -6 -23z m-1401 -46 c0 -6 -11 4 -25 23 -32 44 -32 53 0 16
14 -16 25 -34 25 -39z m-1412 33 c-7 -10 -14 -17 -17 -15 -4 4 18 35 25 35 2
0 -1 -9 -8 -20z m2654 -2 c-7 -7 -12 -8 -12 -2 0 14 12 26 19 19 2 -3 -1 -11
-7 -17z m-1202 2 c0 -5 -4 -10 -10 -10 -5 0 -10 5 -10 10 0 6 5 10 10 10 6 0
10 -4 10 -10z m1018 -1 c-5 -14 -21 -14 -26 0 -2 6 4 11 13 11 9 0 15 -5 13
-11z m-1207 -31 c11 -20 10 -21 -3 -11 -8 7 -18 10 -21 6 -4 -3 -7 -2 -7 4 0
9 10 23 16 23 2 0 9 -10 15 -22z m1049 10 c0 -7 -5 -20 -10 -28 -8 -12 -10 -9
-10 13 0 15 5 27 10 27 6 0 10 -6 10 -12z m-555 -8 c3 -5 1 -10 -4 -10 -6 0
-11 5 -11 10 0 6 2 10 4 10 3 0 8 -4 11 -10z m-608 -22 c-3 -8 -6 -5 -6 6 -1
11 2 17 5 13 3 -3 4 -12 1 -19z m653 1 c0 -11 -4 -17 -10 -14 -5 3 -10 13 -10
21 0 8 5 14 10 14 6 0 10 -9 10 -21z m680 11 c0 -5 -2 -10 -4 -10 -3 0 -8 5
-11 10 -3 6 -1 10 4 10 6 0 11 -4 11 -10z m144 -5 c3 -8 1 -15 -4 -15 -6 0
-10 7 -10 15 0 8 2 15 4 15 2 0 6 -7 10 -15z m-1074 -15 c0 -5 -2 -10 -4 -10
-3 0 -8 5 -11 10 -3 6 -1 10 4 10 6 0 11 -4 11 -10z"/>
<path d="M2143 3634 c-6 -17 15 -37 29 -28 13 9 9 32 -7 38 -9 3 -18 -1 -22
-10z"/>
<path d="M2025 3393 c-33 -14 -76 -29 -95 -33 -34 -7 -35 -7 -9 -14 37 -11 98
8 139 43 43 37 41 37 -35 4z"/>
<path d="M2225 3223 c-11 -2 -27 -7 -35 -10 -25 -10 -70 -11 -76 -2 -7 12 -41
12 -49 0 -6 -11 31 -53 62 -69 22 -12 71 -11 92 2 15 10 14 36 -1 37 -7 1 3 5
22 8 19 4 42 3 51 -3 11 -6 24 -3 44 10 l29 19 -40 7 c-43 8 -69 8 -99 1z"/>
<path d="M2020 3190 c-6 -11 -8 -20 -6 -20 3 0 10 9 16 20 6 11 8 20 6 20 -3
0 -10 -9 -16 -20z"/>
<path d="M2482 3168 c-17 -17 -15 -23 14 -37 l27 -12 -18 27 c-9 14 -12 23 -6
20 6 -4 11 -2 11 3 0 14 -13 14 -28 -1z"/>
<path d="M1967 3090 c-14 -20 -14 -24 1 -41 23 -26 32 -24 32 9 0 44 -15 58
-33 32z"/>
<path d="M2225 3081 c-11 -5 -40 -7 -65 -4 -39 4 -52 0 -100 -31 -79 -52 -71
-88 16 -71 20 3 34 12 34 20 0 22 34 35 108 41 37 3 82 7 99 9 21 2 39 -2 48
-11 8 -9 15 -11 15 -5 0 6 9 11 21 11 11 0 18 -4 15 -9 -7 -11 49 -25 64 -16
6 4 18 1 26 -6 22 -18 37 1 25 33 -9 24 -14 25 -122 32 -62 4 -125 9 -139 11
-14 3 -34 0 -45 -4z"/>
<path d="M2080 2962 c0 -17 35 -32 72 -31 l33 1 -39 9 c-22 5 -45 14 -53 20
-9 8 -13 8 -13 1z"/>
<path d="M2313 2958 c-18 -6 -33 -15 -33 -19 0 -15 24 -10 50 11 28 22 28 22
-17 8z"/>
<path d="M2172 2911 c-41 -8 -41 -23 1 -38 49 -18 82 -15 123 9 32 19 35 23
18 29 -22 9 -95 9 -142 0z"/>
<path d="M2130 2210 c0 -5 7 -10 16 -10 8 0 12 5 9 10 -3 6 -10 10 -16 10 -5
0 -9 -4 -9 -10z"/>
<path d="M2613 2197 c-4 -6 -6 -20 -5 -29 2 -11 -3 -16 -16 -15 -12 0 -18 6
-15 14 5 13 -18 18 -30 7 -5 -5 11 -64 18 -64 6 0 90 39 103 48 9 6 4 14 -17
30 -23 16 -32 19 -38 9z"/>
<path d="M2121 2158 c1 -16 3 -18 6 -6 2 9 12 19 21 21 12 3 10 5 -5 6 -18 1
-23 -4 -22 -21z"/>
<path d="M2178 2124 c-9 -14 7 -50 16 -36 4 7 3 19 -2 28 -5 9 -12 13 -14 8z"/>
<path d="M2447 2114 c3 -8 9 -11 14 -8 5 3 6 -2 3 -10 -3 -9 -1 -16 5 -16 19
0 12 37 -8 43 -14 3 -18 1 -14 -9z"/>
<path d="M2507 2110 c6 -24 26 -21 31 3 2 11 -3 17 -16 17 -15 0 -19 -5 -15
-20z"/>
<path d="M2267 2113 c-11 -11 -8 -33 5 -33 6 0 8 3 5 7 -4 3 -2 12 4 20 11 13
-2 19 -14 6z"/>
<path d="M2391 2115 c-1 -19 36 -58 43 -46 9 14 -1 31 -19 31 -7 0 -16 6 -18
13 -3 6 -6 8 -6 2z"/>
<path d="M2220 2100 c0 -5 5 -10 11 -10 5 0 7 5 4 10 -3 6 -8 10 -11 10 -2 0
-4 -4 -4 -10z"/>
<path d="M2307 2096 c-10 -24 -10 -24 14 -36 18 -10 19 -9 11 7 -5 10 -11 25
-14 32 -3 12 -6 11 -11 -3z"/>
<path d="M2350 2087 c0 -8 7 -20 15 -27 11 -9 15 -10 15 -1 0 7 -7 19 -15 27
-13 13 -15 13 -15 1z"/>
<path d="M2248 2063 c7 -3 16 -2 19 1 4 3 -2 6 -13 5 -11 0 -14 -3 -6 -6z"/>
<path d="M3841 1714 c0 -11 3 -14 6 -6 3 7 2 16 -1 19 -3 4 -6 -2 -5 -13z"/>
<path d="M3902 1620 c7 -10 14 -18 15 -16 6 6 -9 36 -18 36 -5 0 -4 -9 3 -20z"/>
<path d="M4079 1403 c21 -41 34 -52 45 -35 2 4 -11 23 -31 42 l-36 35 22 -42z"/>
<path d="M4102 1334 c10 -10 20 -16 22 -13 3 3 -5 11 -17 18 -21 13 -21 12 -5
-5z"/>
<path d="M4135 1340 c3 -5 11 -10 16 -10 6 0 7 5 4 10 -3 6 -11 10 -16 10 -6
0 -7 -4 -4 -10z"/>
<path d="M4193 1218 c-2 -45 1 -78 5 -74 4 4 7 24 7 44 0 26 4 37 15 37 15 0
30 13 30 28 0 5 -9 6 -20 2 -14 -5 -18 -3 -14 8 2 7 -1 19 -8 25 -10 8 -13 -6
-15 -70z"/>
<path d="M2420 1675 c-12 -14 -11 -18 1 -26 23 -15 54 -6 54 16 0 26 -37 32
-55 10z"/>
<path d="M2306 1584 c-9 -24 -7 -34 7 -34 23 0 38 22 26 37 -15 17 -26 16 -33
-3z"/>
<path d="M2035 1540 c-3 -5 -4 -14 -1 -19 8 -13 45 -20 52 -10 3 5 1 9 -5 9
-6 0 -8 7 -5 15 7 17 -31 22 -41 5z"/>
<path d="M2184 1536 c-15 -12 -17 -17 -6 -28 15 -15 45 0 50 26 4 20 -18 21
-44 2z"/>
<path d="M1915 1517 c-22 -17 -12 -37 20 -37 29 0 41 16 25 35 -15 18 -21 19
-45 2z"/>
<path d="M2410 1509 c0 -5 5 -7 10 -4 6 3 10 8 10 11 0 2 -4 4 -10 4 -5 0 -10
-5 -10 -11z"/>
<path d="M2435 1500 c-3 -5 1 -10 9 -10 8 0 18 5 21 10 3 6 -1 10 -9 10 -8 0
-18 -4 -21 -10z"/>
<path d="M2460 1466 c0 -2 8 -10 18 -17 15 -13 16 -12 3 4 -13 16 -21 21 -21
13z"/>
<path d="M1554 1389 c-10 -17 13 -36 27 -22 12 12 4 33 -11 33 -5 0 -12 -5
-16 -11z"/>
<path d="M1690 1385 c-7 -9 -10 -18 -6 -22 3 -3 6 -1 6 6 0 6 7 11 16 9 10 -2
19 3 21 10 6 17 -22 15 -37 -3z"/>
<path d="M1830 1330 c0 -5 5 -10 11 -10 5 0 7 5 4 10 -3 6 -8 10 -11 10 -2 0
-4 -4 -4 -10z"/>
<path d="M1810 1300 c-13 -9 -13 -10 0 -10 12 0 12 -2 2 -8 -9 -6 -5 -12 15
-22 34 -15 71 -21 77 -11 3 4 -10 8 -27 9 -32 2 -61 27 -51 43 7 11 3 11 -16
-1z"/>
<path d="M1760 1261 c0 -6 4 -13 10 -16 6 -3 7 1 4 9 -7 18 -14 21 -14 7z"/>
<path d="M1627 1210 c-9 -13 -14 -26 -12 -29 9 -8 38 26 33 40 -3 8 -10 5 -21
-11z"/>
<path d="M1575 1210 c3 -5 0 -10 -5 -12 -8 -2 -8 -11 -1 -28 5 -14 10 -19 10
-11 1 8 8 22 16 31 14 16 14 18 -5 23 -11 3 -18 1 -15 -3z"/>
<path d="M1430 1135 c0 -16 -16 -21 -22 -6 -1 4 -11 6 -20 2 -14 -5 -15 -9 -3
-24 11 -16 16 -16 34 -5 18 11 30 48 16 48 -3 0 -5 -7 -5 -15z"/>
<path d="M1170 1092 c0 -5 7 -15 16 -23 13 -10 17 -10 25 2 6 9 9 10 9 2 0
-18 51 -41 79 -37 21 4 22 3 10 -13 -13 -16 -12 -17 3 -5 24 19 12 39 -20 34
-18 -2 -36 4 -51 17 -13 12 -28 21 -32 21 -4 0 -14 3 -23 6 -9 3 -16 2 -16 -4z"/>
<path d="M1265 1010 c-19 -8 -19 -9 3 -9 12 -1 22 4 22 9 0 6 -1 10 -2 9 -2 0
-12 -4 -23 -9z"/>
<path d="M1801 1431 c-7 -5 -11 -14 -7 -19 9 -15 36 -4 36 14 0 16 -9 18 -29
5z"/>
<path d="M1453 1373 c-24 -9 -14 -33 13 -33 18 0 25 5 22 17 -3 18 -16 24 -35
16z"/>
<path d="M1346 1284 c-8 -22 -8 -24 8 -24 21 0 28 16 12 29 -11 9 -15 8 -20
-5z"/>
<path d="M2282 1112 c16 -20 24 -24 26 -15 2 8 -5 21 -15 28 -30 24 -36 17
-11 -13z"/>
<path d="M2356 1128 c3 -5 10 -6 15 -3 13 9 11 12 -6 12 -8 0 -12 -4 -9 -9z"/>
<path d="M2330 823 c0 -5 11 -20 25 -33 14 -13 25 -19 25 -13 0 5 -11 20 -25
33 -14 13 -25 19 -25 13z"/>
<path d="M2440 780 c0 -5 5 -10 10 -10 6 0 10 5 10 10 0 6 -4 10 -10 10 -5 0
-10 -4 -10 -10z"/>
<path d="M2568 723 c6 -2 18 -2 25 0 6 3 1 5 -13 5 -14 0 -19 -2 -12 -5z"/>
<path d="M2497 698 c2 -5 26 -8 53 -8 27 0 51 3 53 8 3 4 -21 7 -53 7 -32 0
-56 -3 -53 -7z"/>
<path d="M1985 980 c-9 -14 3 -47 20 -53 19 -8 38 18 30 43 -7 21 -39 28 -50
10z m38 -6 c3 -3 3 -12 0 -19 -6 -17 -33 -8 -33 11 0 14 21 19 33 8z"/>
<path d="M2410 986 c0 -8 4 -17 9 -20 5 -4 7 3 4 14 -6 23 -13 26 -13 6z"/>
<path d="M2420 940 c0 -21 53 -102 60 -92 3 5 13 11 23 15 21 8 24 -18 2 -30
-10 -6 -11 -13 -5 -23 7 -10 10 -11 10 -2 0 6 6 12 14 12 7 0 16 9 19 20 6 23
-18 40 -55 40 -16 0 -30 12 -45 38 -12 20 -22 30 -23 22z"/>
<path d="M1438 952 c-15 -7 -15 -8 1 -28 9 -11 23 -23 31 -27 10 -3 10 -6 3
-6 -17 -1 26 -51 43 -51 7 0 16 4 19 10 3 6 -1 7 -9 4 -11 -4 -16 0 -16 11 0
12 5 15 21 10 17 -6 20 -3 17 12 -2 10 -10 17 -18 16 -9 -2 -21 11 -28 27 -13
30 -30 35 -64 22z"/>
<path d="M4240 939 c0 -5 5 -7 10 -4 6 3 10 8 10 11 0 2 -4 4 -10 4 -5 0 -10
-5 -10 -11z"/>
<path d="M1305 869 c-4 -6 -5 -12 -2 -15 2 -3 7 2 10 11 7 17 1 20 -8 4z"/>
<path d="M1396 761 c-11 -17 5 -39 32 -44 31 -6 45 9 31 35 -10 19 -54 25 -63
9z m38 -16 c3 -8 1 -15 -3 -15 -5 0 -11 7 -15 15 -3 8 -1 15 3 15 5 0 11 -7
15 -15z"/>
<path d="M1678 551 c26 -23 28 -31 6 -31 -8 0 -13 -4 -9 -9 8 -15 45 -9 45 7
0 15 -39 51 -55 51 -5 0 0 -8 13 -18z"/>
<path d="M2770 661 c0 -6 4 -13 10 -16 6 -3 7 1 4 9 -7 18 -14 21 -14 7z"/>
<path d="M2696 627 c3 -10 9 -15 12 -12 3 3 0 11 -7 18 -10 9 -11 8 -5 -6z"/>
<path d="M2800 420 c0 -5 5 -10 11 -10 5 0 7 5 4 10 -3 6 -8 10 -11 10 -2 0
-4 -4 -4 -10z"/>
<path d="M2603 503 c0 -9 4 -10 14 -2 7 6 13 12 13 14 0 1 -6 2 -13 2 -8 0
-14 -6 -14 -14z"/>
<path d="M2684 377 c-3 -9 -1 -24 5 -35 6 -11 7 -23 3 -27 -4 -5 -1 -5 6 -1 6
4 12 3 12 -1 0 -13 53 -14 61 -1 4 6 2 23 -4 37 -6 14 -11 27 -12 27 0 1 -15
5 -33 9 -24 5 -33 3 -38 -8z"/>
<path d="M3995 291 c-3 -6 -11 -9 -16 -6 -14 10 1 -58 21 -85 25 -36 46 -32
42 7 -3 39 -37 100 -47 84z"/>
<path d="M3906 15 c-18 -13 -18 -14 2 -12 11 0 18 5 16 9 -3 4 2 8 11 8 9 0
14 -4 11 -8 -2 -4 4 -9 15 -9 29 -3 17 22 -12 24 -13 2 -32 -4 -43 -12z"/>
</g>
</svg>
